<?xml version="1.0" encoding="UTF-8"?>
<svg id="Layer_1" xmlns="http://www.w3.org/2000/svg" xmlns:xlink="http://www.w3.org/1999/xlink" version="1.1" viewBox="0 0 244.04 336">
  <!-- Generator: Adobe Illustrator 30.0.0, SVG Export Plug-In . SVG Version: 2.1.1 Build 123)  -->
  <defs>
    <style>
      .st0 {
        fill: #0a2345;
      }

      .st1 {
        fill: none;
      }

      .st2 {
        fill: #c9d0dc;
      }

      .st3 {
        fill: #107fcb;
      }

      .st4 {
        clip-path: url(#clippath-17);
      }

      .st5 {
        clip-path: url(#clippath-19);
      }

      .st6 {
        clip-path: url(#clippath-11);
      }

      .st7 {
        clip-path: url(#clippath-16);
      }

      .st8 {
        clip-path: url(#clippath-18);
      }

      .st9 {
        clip-path: url(#clippath-10);
      }

      .st10 {
        clip-path: url(#clippath-15);
      }

      .st11 {
        clip-path: url(#clippath-13);
      }

      .st12 {
        clip-path: url(#clippath-14);
      }

      .st13 {
        clip-path: url(#clippath-12);
      }

      .st14 {
        clip-path: url(#clippath-61);
      }

      .st15 {
        clip-path: url(#clippath-67);
      }

      .st16 {
        clip-path: url(#clippath-68);
      }

      .st17 {
        clip-path: url(#clippath-60);
      }

      .st18 {
        clip-path: url(#clippath-65);
      }

      .st19 {
        clip-path: url(#clippath-62);
      }

      .st20 {
        clip-path: url(#clippath-64);
      }

      .st21 {
        clip-path: url(#clippath-66);
      }

      .st22 {
        clip-path: url(#clippath-63);
      }

      .st23 {
        clip-path: url(#clippath-76);
      }

      .st24 {
        clip-path: url(#clippath-78);
      }

      .st25 {
        clip-path: url(#clippath-75);
      }

      .st26 {
        clip-path: url(#clippath-79);
      }

      .st27 {
        clip-path: url(#clippath-50);
      }

      .st28 {
        clip-path: url(#clippath-55);
      }

      .st29 {
        clip-path: url(#clippath-52);
      }

      .st30 {
        clip-path: url(#clippath-57);
      }

      .st31 {
        clip-path: url(#clippath-54);
      }

      .st32 {
        clip-path: url(#clippath-56);
      }

      .st33 {
        clip-path: url(#clippath-53);
      }

      .st34 {
        clip-path: url(#clippath-70);
      }

      .st35 {
        clip-path: url(#clippath-77);
      }

      .st36 {
        clip-path: url(#clippath-74);
      }

      .st37 {
        clip-path: url(#clippath-71);
      }

      .st38 {
        clip-path: url(#clippath-73);
      }

      .st39 {
        clip-path: url(#clippath-72);
      }

      .st40 {
        clip-path: url(#clippath-51);
      }

      .st41 {
        clip-path: url(#clippath-58);
      }

      .st42 {
        clip-path: url(#clippath-59);
      }

      .st43 {
        clip-path: url(#clippath-31);
      }

      .st44 {
        clip-path: url(#clippath-32);
      }

      .st45 {
        clip-path: url(#clippath-33);
      }

      .st46 {
        clip-path: url(#clippath-34);
      }

      .st47 {
        clip-path: url(#clippath-35);
      }

      .st48 {
        clip-path: url(#clippath-39);
      }

      .st49 {
        clip-path: url(#clippath-30);
      }

      .st50 {
        clip-path: url(#clippath-36);
      }

      .st51 {
        clip-path: url(#clippath-37);
      }

      .st52 {
        clip-path: url(#clippath-38);
      }

      .st53 {
        clip-path: url(#clippath-27);
      }

      .st54 {
        clip-path: url(#clippath-29);
      }

      .st55 {
        clip-path: url(#clippath-26);
      }

      .st56 {
        clip-path: url(#clippath-28);
      }

      .st57 {
        clip-path: url(#clippath-20);
      }

      .st58 {
        clip-path: url(#clippath-21);
      }

      .st59 {
        clip-path: url(#clippath-22);
      }

      .st60 {
        clip-path: url(#clippath-23);
      }

      .st61 {
        clip-path: url(#clippath-24);
      }

      .st62 {
        clip-path: url(#clippath-25);
      }

      .st63 {
        clip-path: url(#clippath-69);
      }

      .st64 {
        clip-path: url(#clippath-41);
      }

      .st65 {
        clip-path: url(#clippath-42);
      }

      .st66 {
        clip-path: url(#clippath-43);
      }

      .st67 {
        clip-path: url(#clippath-44);
      }

      .st68 {
        clip-path: url(#clippath-45);
      }

      .st69 {
        clip-path: url(#clippath-49);
      }

      .st70 {
        clip-path: url(#clippath-40);
      }

      .st71 {
        clip-path: url(#clippath-46);
      }

      .st72 {
        clip-path: url(#clippath-47);
      }

      .st73 {
        clip-path: url(#clippath-48);
      }

      .st74 {
        clip-path: url(#clippath-80);
      }

      .st75 {
        clip-path: url(#clippath-81);
      }

      .st76 {
        clip-path: url(#clippath-82);
      }

      .st77 {
        clip-path: url(#clippath-83);
      }

      .st78 {
        clip-path: url(#clippath-84);
      }

      .st79 {
        clip-path: url(#clippath-1);
      }

      .st80 {
        clip-path: url(#clippath-3);
      }

      .st81 {
        clip-path: url(#clippath-4);
      }

      .st82 {
        clip-path: url(#clippath-2);
      }

      .st83 {
        clip-path: url(#clippath-7);
      }

      .st84 {
        clip-path: url(#clippath-6);
      }

      .st85 {
        clip-path: url(#clippath-9);
      }

      .st86 {
        clip-path: url(#clippath-8);
      }

      .st87 {
        clip-path: url(#clippath-5);
      }

      .st88 {
        fill: #45a5e1;
      }

      .st89 {
        fill: #fff;
      }

      .st90 {
        fill: #010a10;
      }

      .st91 {
        clip-path: url(#clippath);
      }
    </style>
    <clipPath id="clippath">
      <path class="st1" d="M122.02,300.92c-30.4,0-59.72-9.57-84.08-27.21V62.26c24.36-17.64,53.68-27.22,84.08-27.22,0,0,0,0,0,0,30.4,0,59.72,9.57,84.08,27.22v211.45c-24.36,17.64-53.68,27.21-84.08,27.21h0Z"/>
    </clipPath>
    <clipPath id="clippath-1">
      <path class="st1" d="M122.02,300.92c-30.4,0-59.72-9.57-84.08-27.21V62.26c24.36-17.64,53.68-27.22,84.08-27.22,0,0,0,0,0,0,30.4,0,59.72,9.57,84.08,27.22v211.45c-24.36,17.64-53.68,27.21-84.08,27.21h0Z"/>
    </clipPath>
    <clipPath id="clippath-2">
      <path class="st1" d="M122.02,300.92c-30.4,0-59.72-9.57-84.08-27.21V62.26c24.36-17.64,53.68-27.22,84.08-27.22,0,0,0,0,0,0,30.4,0,59.72,9.57,84.08,27.22v211.45c-24.36,17.64-53.68,27.21-84.08,27.21h0Z"/>
    </clipPath>
    <clipPath id="clippath-3">
      <path class="st1" d="M122.02,300.92c-30.4,0-59.72-9.57-84.08-27.21V62.26c24.36-17.64,53.68-27.22,84.08-27.22,0,0,0,0,0,0,30.4,0,59.72,9.57,84.08,27.22v211.45c-24.36,17.64-53.68,27.21-84.08,27.21h0Z"/>
    </clipPath>
    <clipPath id="clippath-4">
      <path class="st1" d="M122.02,300.92c-30.4,0-59.72-9.57-84.08-27.21V62.26c24.36-17.64,53.68-27.22,84.08-27.22,0,0,0,0,0,0,30.4,0,59.72,9.57,84.08,27.22v211.45c-24.36,17.64-53.68,27.21-84.08,27.21h0Z"/>
    </clipPath>
    <clipPath id="clippath-5">
      <path class="st1" d="M122.02,300.92c-30.4,0-59.72-9.57-84.08-27.21V62.26c24.36-17.64,53.68-27.22,84.08-27.22,0,0,0,0,0,0,30.4,0,59.72,9.57,84.08,27.22v211.45c-24.36,17.64-53.68,27.21-84.08,27.21h0Z"/>
    </clipPath>
    <clipPath id="clippath-6">
      <path class="st1" d="M122.02,300.92c-30.4,0-59.72-9.57-84.08-27.21V62.26c24.36-17.64,53.68-27.22,84.08-27.22,0,0,0,0,0,0,30.4,0,59.72,9.57,84.08,27.22v211.45c-24.36,17.64-53.68,27.21-84.08,27.21h0Z"/>
    </clipPath>
    <clipPath id="clippath-7">
      <path class="st1" d="M122.02,300.92c-30.4,0-59.72-9.57-84.08-27.21V62.26c24.36-17.64,53.68-27.22,84.08-27.22,0,0,0,0,0,0,30.4,0,59.72,9.57,84.08,27.22v211.45c-24.36,17.64-53.68,27.21-84.08,27.21h0Z"/>
    </clipPath>
    <clipPath id="clippath-8">
      <path class="st1" d="M122.02,300.92c-30.4,0-59.72-9.57-84.08-27.21V62.26c24.36-17.64,53.68-27.22,84.08-27.22,0,0,0,0,0,0,30.4,0,59.72,9.57,84.08,27.22v211.45c-24.36,17.64-53.68,27.21-84.08,27.21h0Z"/>
    </clipPath>
    <clipPath id="clippath-9">
      <path class="st1" d="M122.02,300.92c-30.4,0-59.72-9.57-84.08-27.21V62.26c24.36-17.64,53.68-27.22,84.08-27.22,0,0,0,0,0,0,30.4,0,59.72,9.57,84.08,27.22v211.45c-24.36,17.64-53.68,27.21-84.08,27.21h0Z"/>
    </clipPath>
    <clipPath id="clippath-10">
      <path class="st1" d="M122.02,300.92c-30.4,0-59.72-9.57-84.08-27.21V62.26c24.36-17.64,53.68-27.22,84.08-27.22,0,0,0,0,0,0,30.4,0,59.72,9.57,84.08,27.22v211.45c-24.36,17.64-53.68,27.21-84.08,27.21h0Z"/>
    </clipPath>
    <clipPath id="clippath-11">
      <path class="st1" d="M122.02,300.92c-30.4,0-59.72-9.57-84.08-27.21V62.26c24.36-17.64,53.68-27.22,84.08-27.22,0,0,0,0,0,0,30.4,0,59.72,9.57,84.08,27.22v211.45c-24.36,17.64-53.68,27.21-84.08,27.21h0Z"/>
    </clipPath>
    <clipPath id="clippath-12">
      <path class="st1" d="M122.02,300.92c-30.4,0-59.72-9.57-84.08-27.21V62.26c24.36-17.64,53.68-27.22,84.08-27.22,0,0,0,0,0,0,30.4,0,59.72,9.57,84.08,27.22v211.45c-24.36,17.64-53.68,27.21-84.08,27.21h0Z"/>
    </clipPath>
    <clipPath id="clippath-13">
      <path class="st1" d="M122.02,300.92c-30.4,0-59.72-9.57-84.08-27.21V62.26c24.36-17.64,53.68-27.22,84.08-27.22,0,0,0,0,0,0,30.4,0,59.72,9.57,84.08,27.22v211.45c-24.36,17.64-53.68,27.21-84.08,27.21h0Z"/>
    </clipPath>
    <clipPath id="clippath-14">
      <path class="st1" d="M122.02,300.92c-30.4,0-59.72-9.57-84.08-27.21V62.26c24.36-17.64,53.68-27.22,84.08-27.22,0,0,0,0,0,0,30.4,0,59.72,9.57,84.08,27.22v211.45c-24.36,17.64-53.68,27.21-84.08,27.21h0Z"/>
    </clipPath>
    <clipPath id="clippath-15">
      <path class="st1" d="M122.02,300.92c-30.4,0-59.72-9.57-84.08-27.21V62.26c24.36-17.64,53.68-27.22,84.08-27.22,0,0,0,0,0,0,30.4,0,59.72,9.57,84.08,27.22v211.45c-24.36,17.64-53.68,27.21-84.08,27.21h0Z"/>
    </clipPath>
    <clipPath id="clippath-16">
      <path class="st1" d="M122.02,300.92c-30.4,0-59.72-9.57-84.08-27.21V62.26c24.36-17.64,53.68-27.22,84.08-27.22,0,0,0,0,0,0,30.4,0,59.72,9.57,84.08,27.22v211.45c-24.36,17.64-53.68,27.21-84.08,27.21h0Z"/>
    </clipPath>
    <clipPath id="clippath-17">
      <path class="st1" d="M122.02,300.92c-30.4,0-59.72-9.57-84.08-27.21V62.26c24.36-17.64,53.68-27.22,84.08-27.22,0,0,0,0,0,0,30.4,0,59.72,9.57,84.08,27.22v211.45c-24.36,17.64-53.68,27.21-84.08,27.21h0Z"/>
    </clipPath>
    <clipPath id="clippath-18">
      <path class="st1" d="M122.02,300.92c-30.4,0-59.72-9.57-84.08-27.21V62.26c24.36-17.64,53.68-27.22,84.08-27.22,0,0,0,0,0,0,30.4,0,59.72,9.57,84.08,27.22v211.45c-24.36,17.64-53.68,27.21-84.08,27.21h0Z"/>
    </clipPath>
    <clipPath id="clippath-19">
      <path class="st1" d="M122.02,300.92c-30.4,0-59.72-9.57-84.08-27.21V62.26c24.36-17.64,53.68-27.22,84.08-27.22,0,0,0,0,0,0,30.4,0,59.72,9.57,84.08,27.22v211.45c-24.36,17.64-53.68,27.21-84.08,27.21h0Z"/>
    </clipPath>
    <clipPath id="clippath-20">
      <path class="st1" d="M122.02,300.92c-30.4,0-59.72-9.57-84.08-27.21V62.26c24.36-17.64,53.68-27.22,84.08-27.22,0,0,0,0,0,0,30.4,0,59.72,9.57,84.08,27.22v211.45c-24.36,17.64-53.68,27.21-84.08,27.21h0Z"/>
    </clipPath>
    <clipPath id="clippath-21">
      <path class="st1" d="M122.02,300.92c-30.4,0-59.72-9.57-84.08-27.21V62.26c24.36-17.64,53.68-27.22,84.08-27.22,0,0,0,0,0,0,30.4,0,59.72,9.57,84.08,27.22v211.45c-24.36,17.64-53.68,27.21-84.08,27.21h0Z"/>
    </clipPath>
    <clipPath id="clippath-22">
      <path class="st1" d="M122.02,300.92c-30.4,0-59.72-9.57-84.08-27.21V62.26c24.36-17.64,53.68-27.22,84.08-27.22,0,0,0,0,0,0,30.4,0,59.72,9.57,84.08,27.22v211.45c-24.36,17.64-53.68,27.21-84.08,27.21h0Z"/>
    </clipPath>
    <clipPath id="clippath-23">
      <path class="st1" d="M122.02,300.92c-30.4,0-59.72-9.57-84.08-27.21V62.26c24.36-17.64,53.68-27.22,84.08-27.22,0,0,0,0,0,0,30.4,0,59.72,9.57,84.08,27.22v211.45c-24.36,17.64-53.68,27.21-84.08,27.21h0Z"/>
    </clipPath>
    <clipPath id="clippath-24">
      <path class="st1" d="M122.02,300.92c-30.4,0-59.72-9.57-84.08-27.21V62.26c24.36-17.64,53.68-27.22,84.08-27.22,0,0,0,0,0,0,30.4,0,59.72,9.57,84.08,27.22v211.45c-24.36,17.64-53.68,27.21-84.08,27.21h0Z"/>
    </clipPath>
    <clipPath id="clippath-25">
      <path class="st1" d="M122.02,300.92c-30.4,0-59.72-9.57-84.08-27.21V62.26c24.36-17.64,53.68-27.22,84.08-27.22,0,0,0,0,0,0,30.4,0,59.72,9.57,84.08,27.22v211.45c-24.36,17.64-53.68,27.21-84.08,27.21h0Z"/>
    </clipPath>
    <clipPath id="clippath-26">
      <path class="st1" d="M122.02,300.92c-30.4,0-59.72-9.57-84.08-27.21V62.26c24.36-17.64,53.68-27.22,84.08-27.22,0,0,0,0,0,0,30.4,0,59.72,9.57,84.08,27.22v211.45c-24.36,17.64-53.68,27.21-84.08,27.21h0Z"/>
    </clipPath>
    <clipPath id="clippath-27">
      <path class="st1" d="M122.02,300.92c-30.4,0-59.72-9.57-84.08-27.21V62.26c24.36-17.64,53.68-27.22,84.08-27.22,0,0,0,0,0,0,30.4,0,59.72,9.57,84.08,27.22v211.45c-24.36,17.64-53.68,27.21-84.08,27.21h0Z"/>
    </clipPath>
    <clipPath id="clippath-28">
      <path class="st1" d="M122.02,300.92c-30.4,0-59.72-9.57-84.08-27.21V62.26c24.36-17.64,53.68-27.22,84.08-27.22,0,0,0,0,0,0,30.4,0,59.72,9.57,84.08,27.22v211.45c-24.36,17.64-53.68,27.21-84.08,27.21h0Z"/>
    </clipPath>
    <clipPath id="clippath-29">
      <path class="st1" d="M122.02,300.92c-30.4,0-59.72-9.57-84.08-27.21V62.26c24.36-17.64,53.68-27.22,84.08-27.22,0,0,0,0,0,0,30.4,0,59.72,9.57,84.08,27.22v211.45c-24.36,17.64-53.68,27.21-84.08,27.21h0Z"/>
    </clipPath>
    <clipPath id="clippath-30">
      <path class="st1" d="M122.02,300.92c-30.4,0-59.72-9.57-84.08-27.21V62.26c24.36-17.64,53.68-27.22,84.08-27.22,0,0,0,0,0,0,30.4,0,59.72,9.57,84.08,27.22v211.45c-24.36,17.64-53.68,27.21-84.08,27.21h0Z"/>
    </clipPath>
    <clipPath id="clippath-31">
      <path class="st1" d="M122.02,300.92c-30.4,0-59.72-9.57-84.08-27.21V62.26c24.36-17.64,53.68-27.22,84.08-27.22,0,0,0,0,0,0,30.4,0,59.72,9.57,84.08,27.22v211.45c-24.36,17.64-53.68,27.21-84.08,27.21h0Z"/>
    </clipPath>
    <clipPath id="clippath-32">
      <path class="st1" d="M122.02,300.92c-30.4,0-59.72-9.57-84.08-27.21V62.26c24.36-17.64,53.68-27.22,84.08-27.22,0,0,0,0,0,0,30.4,0,59.72,9.57,84.08,27.22v211.45c-24.36,17.64-53.68,27.21-84.08,27.21h0Z"/>
    </clipPath>
    <clipPath id="clippath-33">
      <path class="st1" d="M122.02,300.92c-30.4,0-59.72-9.57-84.08-27.21V62.26c24.36-17.64,53.68-27.22,84.08-27.22,0,0,0,0,0,0,30.4,0,59.72,9.57,84.08,27.22v211.45c-24.36,17.64-53.68,27.21-84.08,27.21h0Z"/>
    </clipPath>
    <clipPath id="clippath-34">
      <path class="st1" d="M122.02,300.92c-30.4,0-59.72-9.57-84.08-27.21V62.26c24.36-17.64,53.68-27.22,84.08-27.22,0,0,0,0,0,0,30.4,0,59.72,9.57,84.08,27.22v211.45c-24.36,17.64-53.68,27.21-84.08,27.21h0Z"/>
    </clipPath>
    <clipPath id="clippath-35">
      <path class="st1" d="M122.02,300.92c-30.4,0-59.72-9.57-84.08-27.21V62.26c24.36-17.64,53.68-27.22,84.08-27.22,0,0,0,0,0,0,30.4,0,59.72,9.57,84.08,27.22v211.45c-24.36,17.64-53.68,27.21-84.08,27.21h0Z"/>
    </clipPath>
    <clipPath id="clippath-36">
      <path class="st1" d="M122.02,300.92c-30.4,0-59.72-9.57-84.08-27.21V62.26c24.36-17.64,53.68-27.22,84.08-27.22,0,0,0,0,0,0,30.4,0,59.72,9.57,84.08,27.22v211.45c-24.36,17.64-53.68,27.21-84.08,27.21h0Z"/>
    </clipPath>
    <clipPath id="clippath-37">
      <path class="st1" d="M122.02,300.92c-30.4,0-59.72-9.57-84.08-27.21V62.26c24.36-17.64,53.68-27.22,84.08-27.22,0,0,0,0,0,0,30.4,0,59.72,9.57,84.08,27.22v211.45c-24.36,17.64-53.68,27.21-84.08,27.21h0Z"/>
    </clipPath>
    <clipPath id="clippath-38">
      <path class="st1" d="M122.02,300.92c-30.4,0-59.72-9.57-84.08-27.21V62.26c24.36-17.64,53.68-27.22,84.08-27.22,0,0,0,0,0,0,30.4,0,59.72,9.57,84.08,27.22v211.45c-24.36,17.64-53.68,27.21-84.08,27.21h0Z"/>
    </clipPath>
    <clipPath id="clippath-39">
      <path class="st1" d="M122.02,300.92c-30.4,0-59.72-9.57-84.08-27.21V62.26c24.36-17.64,53.68-27.22,84.08-27.22,0,0,0,0,0,0,30.4,0,59.72,9.57,84.08,27.22v211.45c-24.36,17.64-53.68,27.21-84.08,27.21h0Z"/>
    </clipPath>
    <clipPath id="clippath-40">
      <path class="st1" d="M122.02,300.92c-30.4,0-59.72-9.57-84.08-27.21V62.26c24.36-17.64,53.68-27.22,84.08-27.22,0,0,0,0,0,0,30.4,0,59.72,9.57,84.08,27.22v211.45c-24.36,17.64-53.68,27.21-84.08,27.21h0Z"/>
    </clipPath>
    <clipPath id="clippath-41">
      <path class="st1" d="M122.02,300.92c-30.4,0-59.72-9.57-84.08-27.21V62.26c24.36-17.64,53.68-27.22,84.08-27.22,0,0,0,0,0,0,30.4,0,59.72,9.57,84.08,27.22v211.45c-24.36,17.64-53.68,27.21-84.08,27.21h0Z"/>
    </clipPath>
    <clipPath id="clippath-42">
      <path class="st1" d="M122.02,300.92c-30.4,0-59.72-9.57-84.08-27.21V62.26c24.36-17.64,53.68-27.22,84.08-27.22,0,0,0,0,0,0,30.4,0,59.72,9.57,84.08,27.22v211.45c-24.36,17.64-53.68,27.21-84.08,27.21h0Z"/>
    </clipPath>
    <clipPath id="clippath-43">
      <path class="st1" d="M122.02,300.92c-30.4,0-59.72-9.57-84.08-27.21V62.26c24.36-17.64,53.68-27.22,84.08-27.22,0,0,0,0,0,0,30.4,0,59.72,9.57,84.08,27.22v211.45c-24.36,17.64-53.68,27.21-84.08,27.21h0Z"/>
    </clipPath>
    <clipPath id="clippath-44">
      <path class="st1" d="M122.02,300.92c-30.4,0-59.72-9.57-84.08-27.21V62.26c24.36-17.64,53.68-27.22,84.08-27.22,0,0,0,0,0,0,30.4,0,59.72,9.57,84.08,27.22v211.45c-24.36,17.64-53.68,27.21-84.08,27.21h0Z"/>
    </clipPath>
    <clipPath id="clippath-45">
      <path class="st1" d="M122.02,300.92c-30.4,0-59.72-9.57-84.08-27.21V62.26c24.36-17.64,53.68-27.22,84.08-27.22,0,0,0,0,0,0,30.4,0,59.72,9.57,84.08,27.22v211.45c-24.36,17.64-53.68,27.21-84.08,27.21h0Z"/>
    </clipPath>
    <clipPath id="clippath-46">
      <path class="st1" d="M122.02,300.92c-30.4,0-59.72-9.57-84.08-27.21V62.26c24.36-17.64,53.68-27.22,84.08-27.22,0,0,0,0,0,0,30.4,0,59.72,9.57,84.08,27.22v211.45c-24.36,17.64-53.68,27.21-84.08,27.21h0Z"/>
    </clipPath>
    <clipPath id="clippath-47">
      <path class="st1" d="M122.02,300.92c-30.4,0-59.72-9.57-84.08-27.21V62.26c24.36-17.64,53.68-27.22,84.08-27.22,0,0,0,0,0,0,30.4,0,59.72,9.57,84.08,27.22v211.45c-24.36,17.64-53.68,27.21-84.08,27.21h0Z"/>
    </clipPath>
    <clipPath id="clippath-48">
      <path class="st1" d="M122.02,300.92c-30.4,0-59.72-9.57-84.08-27.21V62.26c24.36-17.64,53.68-27.22,84.08-27.22,0,0,0,0,0,0,30.4,0,59.72,9.57,84.08,27.22v211.45c-24.36,17.64-53.68,27.21-84.08,27.21h0Z"/>
    </clipPath>
    <clipPath id="clippath-49">
      <path class="st1" d="M122.02,300.92c-30.4,0-59.72-9.57-84.08-27.21V62.26c24.36-17.64,53.68-27.22,84.08-27.22,0,0,0,0,0,0,30.4,0,59.72,9.57,84.08,27.22v211.45c-24.36,17.64-53.68,27.21-84.08,27.21h0Z"/>
    </clipPath>
    <clipPath id="clippath-50">
      <path class="st1" d="M122.02,300.92c-30.4,0-59.72-9.57-84.08-27.21V62.26c24.36-17.64,53.68-27.22,84.08-27.22,0,0,0,0,0,0,30.4,0,59.72,9.57,84.08,27.22v211.45c-24.36,17.64-53.68,27.21-84.08,27.21h0Z"/>
    </clipPath>
    <clipPath id="clippath-51">
      <path class="st1" d="M122.02,300.92c-30.4,0-59.72-9.57-84.08-27.21V62.26c24.36-17.64,53.68-27.22,84.08-27.22,0,0,0,0,0,0,30.4,0,59.72,9.57,84.08,27.22v211.45c-24.36,17.64-53.68,27.21-84.08,27.21h0Z"/>
    </clipPath>
    <clipPath id="clippath-52">
      <path class="st1" d="M122.02,300.92c-30.4,0-59.72-9.57-84.08-27.21V62.26c24.36-17.64,53.68-27.22,84.08-27.22,0,0,0,0,0,0,30.4,0,59.72,9.57,84.08,27.22v211.45c-24.36,17.64-53.68,27.21-84.08,27.21h0Z"/>
    </clipPath>
    <clipPath id="clippath-53">
      <path class="st1" d="M122.02,300.92c-30.4,0-59.72-9.57-84.08-27.21V62.26c24.36-17.64,53.68-27.22,84.08-27.22,0,0,0,0,0,0,30.4,0,59.72,9.57,84.08,27.22v211.45c-24.36,17.64-53.68,27.21-84.08,27.21h0Z"/>
    </clipPath>
    <clipPath id="clippath-54">
      <path class="st1" d="M122.02,300.92c-30.4,0-59.72-9.57-84.08-27.21V62.26c24.36-17.64,53.68-27.22,84.08-27.22,0,0,0,0,0,0,30.4,0,59.72,9.57,84.08,27.22v211.45c-24.36,17.64-53.68,27.21-84.08,27.21h0Z"/>
    </clipPath>
    <clipPath id="clippath-55">
      <path class="st1" d="M122.02,300.92c-30.4,0-59.72-9.57-84.08-27.21V62.26c24.36-17.64,53.68-27.22,84.08-27.22,0,0,0,0,0,0,30.4,0,59.72,9.57,84.08,27.22v211.45c-24.36,17.64-53.68,27.21-84.08,27.21h0Z"/>
    </clipPath>
    <clipPath id="clippath-56">
      <path class="st1" d="M122.02,300.92c-30.4,0-59.72-9.57-84.08-27.21V62.26c24.36-17.64,53.68-27.22,84.08-27.22,0,0,0,0,0,0,30.4,0,59.72,9.57,84.08,27.22v211.45c-24.36,17.64-53.68,27.21-84.08,27.21h0Z"/>
    </clipPath>
    <clipPath id="clippath-57">
      <path class="st1" d="M122.02,300.92c-30.4,0-59.72-9.57-84.08-27.21V62.26c24.36-17.64,53.68-27.22,84.08-27.22,0,0,0,0,0,0,30.4,0,59.72,9.57,84.08,27.22v211.45c-24.36,17.64-53.68,27.21-84.08,27.21h0Z"/>
    </clipPath>
    <clipPath id="clippath-58">
      <path class="st1" d="M122.02,300.92c-30.4,0-59.72-9.57-84.08-27.21V62.26c24.36-17.64,53.68-27.22,84.08-27.22,0,0,0,0,0,0,30.4,0,59.72,9.57,84.08,27.22v211.45c-24.36,17.64-53.68,27.21-84.08,27.21h0Z"/>
    </clipPath>
    <clipPath id="clippath-59">
      <path class="st1" d="M122.02,300.92c-30.4,0-59.72-9.57-84.08-27.21V62.26c24.36-17.64,53.68-27.22,84.08-27.22,0,0,0,0,0,0,30.4,0,59.72,9.57,84.08,27.22v211.45c-24.36,17.64-53.68,27.21-84.08,27.21h0Z"/>
    </clipPath>
    <clipPath id="clippath-60">
      <path class="st1" d="M122.02,300.92c-30.4,0-59.72-9.57-84.08-27.21V62.26c24.36-17.64,53.68-27.22,84.08-27.22,0,0,0,0,0,0,30.4,0,59.72,9.57,84.08,27.22v211.45c-24.36,17.64-53.68,27.21-84.08,27.21h0Z"/>
    </clipPath>
    <clipPath id="clippath-61">
      <path class="st1" d="M122.02,300.92c-30.4,0-59.72-9.57-84.08-27.21V62.26c24.36-17.64,53.68-27.22,84.08-27.22,0,0,0,0,0,0,30.4,0,59.72,9.57,84.08,27.22v211.45c-24.36,17.64-53.68,27.21-84.08,27.21h0Z"/>
    </clipPath>
    <clipPath id="clippath-62">
      <path class="st1" d="M122.02,300.92c-30.4,0-59.72-9.57-84.08-27.21V62.26c24.36-17.64,53.68-27.22,84.08-27.22,0,0,0,0,0,0,30.4,0,59.72,9.57,84.08,27.22v211.45c-24.36,17.64-53.68,27.21-84.08,27.21h0Z"/>
    </clipPath>
    <clipPath id="clippath-63">
      <path class="st1" d="M122.02,300.92c-30.4,0-59.72-9.57-84.08-27.21V62.26c24.36-17.64,53.68-27.22,84.08-27.22,0,0,0,0,0,0,30.4,0,59.72,9.57,84.08,27.22v211.45c-24.36,17.64-53.68,27.21-84.08,27.21h0Z"/>
    </clipPath>
    <clipPath id="clippath-64">
      <path class="st1" d="M122.02,300.92c-30.4,0-59.72-9.57-84.08-27.21V62.26c24.36-17.64,53.68-27.22,84.08-27.22,0,0,0,0,0,0,30.4,0,59.72,9.57,84.08,27.22v211.45c-24.36,17.64-53.68,27.21-84.08,27.21h0Z"/>
    </clipPath>
    <clipPath id="clippath-65">
      <path class="st1" d="M122.02,300.92c-30.4,0-59.72-9.57-84.08-27.21V62.26c24.36-17.64,53.68-27.22,84.08-27.22,0,0,0,0,0,0,30.4,0,59.72,9.57,84.08,27.22v211.45c-24.36,17.64-53.68,27.21-84.08,27.21h0Z"/>
    </clipPath>
    <clipPath id="clippath-66">
      <path class="st1" d="M122.02,300.92c-30.4,0-59.72-9.57-84.08-27.21V62.26c24.36-17.64,53.68-27.22,84.08-27.22,0,0,0,0,0,0,30.4,0,59.72,9.57,84.08,27.22v211.45c-24.36,17.64-53.68,27.21-84.08,27.21h0Z"/>
    </clipPath>
    <clipPath id="clippath-67">
      <path class="st1" d="M122.02,300.92c-30.4,0-59.72-9.57-84.08-27.21V62.26c24.36-17.64,53.68-27.22,84.08-27.22,0,0,0,0,0,0,30.4,0,59.72,9.57,84.08,27.22v211.45c-24.36,17.64-53.68,27.21-84.08,27.21h0Z"/>
    </clipPath>
    <clipPath id="clippath-68">
      <path class="st1" d="M122.02,300.92c-30.4,0-59.72-9.57-84.08-27.21V62.26c24.36-17.64,53.68-27.22,84.08-27.22,0,0,0,0,0,0,30.4,0,59.72,9.57,84.08,27.22v211.45c-24.36,17.64-53.68,27.21-84.08,27.21h0Z"/>
    </clipPath>
    <clipPath id="clippath-69">
      <path class="st1" d="M122.02,300.92c-30.4,0-59.72-9.57-84.08-27.21V62.26c24.36-17.64,53.68-27.22,84.08-27.22,0,0,0,0,0,0,30.4,0,59.72,9.57,84.08,27.22v211.45c-24.36,17.64-53.68,27.21-84.08,27.21h0Z"/>
    </clipPath>
    <clipPath id="clippath-70">
      <path class="st1" d="M122.02,300.92c-30.4,0-59.72-9.57-84.08-27.21V62.26c24.36-17.64,53.68-27.22,84.08-27.22,0,0,0,0,0,0,30.4,0,59.72,9.57,84.08,27.22v211.45c-24.36,17.64-53.68,27.21-84.08,27.21h0Z"/>
    </clipPath>
    <clipPath id="clippath-71">
      <path class="st1" d="M122.02,300.92c-30.4,0-59.72-9.57-84.08-27.21V62.26c24.36-17.64,53.68-27.22,84.08-27.22,0,0,0,0,0,0,30.4,0,59.72,9.57,84.08,27.22v211.45c-24.36,17.64-53.68,27.21-84.08,27.21h0Z"/>
    </clipPath>
    <clipPath id="clippath-72">
      <path class="st1" d="M122.02,300.92c-30.4,0-59.72-9.57-84.08-27.21V62.26c24.36-17.64,53.68-27.22,84.08-27.22,0,0,0,0,0,0,30.4,0,59.72,9.57,84.08,27.22v211.45c-24.36,17.64-53.68,27.21-84.08,27.21h0Z"/>
    </clipPath>
    <clipPath id="clippath-73">
      <path class="st1" d="M122.02,300.92c-30.4,0-59.72-9.57-84.08-27.21V62.26c24.36-17.64,53.68-27.22,84.08-27.22,0,0,0,0,0,0,30.4,0,59.72,9.57,84.08,27.22v211.45c-24.36,17.64-53.68,27.21-84.08,27.21h0Z"/>
    </clipPath>
    <clipPath id="clippath-74">
      <path class="st1" d="M122.02,300.92c-30.4,0-59.72-9.57-84.08-27.21V62.26c24.36-17.64,53.68-27.22,84.08-27.22,0,0,0,0,0,0,30.4,0,59.72,9.57,84.08,27.22v211.45c-24.36,17.64-53.68,27.21-84.08,27.21h0Z"/>
    </clipPath>
    <clipPath id="clippath-75">
      <path class="st1" d="M122.02,300.92c-30.4,0-59.72-9.57-84.08-27.21V62.26c24.36-17.64,53.68-27.22,84.08-27.22,0,0,0,0,0,0,30.4,0,59.72,9.57,84.08,27.22v211.45c-24.36,17.64-53.68,27.21-84.08,27.21h0Z"/>
    </clipPath>
    <clipPath id="clippath-76">
      <path class="st1" d="M122.02,300.92c-30.4,0-59.72-9.57-84.08-27.21V62.26c24.36-17.64,53.68-27.22,84.08-27.22,0,0,0,0,0,0,30.4,0,59.72,9.57,84.08,27.22v211.45c-24.36,17.64-53.68,27.21-84.08,27.21h0Z"/>
    </clipPath>
    <clipPath id="clippath-77">
      <path class="st1" d="M122.02,300.92c-30.4,0-59.72-9.57-84.08-27.21V62.26c24.36-17.64,53.68-27.22,84.08-27.22,0,0,0,0,0,0,30.4,0,59.72,9.57,84.08,27.22v211.45c-24.36,17.64-53.68,27.21-84.08,27.21h0Z"/>
    </clipPath>
    <clipPath id="clippath-78">
      <path class="st1" d="M122.02,300.92c-30.4,0-59.72-9.57-84.08-27.21V62.26c24.36-17.64,53.68-27.22,84.08-27.22,0,0,0,0,0,0,30.4,0,59.72,9.57,84.08,27.22v211.45c-24.36,17.64-53.68,27.21-84.08,27.21h0Z"/>
    </clipPath>
    <clipPath id="clippath-79">
      <path class="st1" d="M122.02,300.92c-30.4,0-59.72-9.57-84.08-27.21V62.26c24.36-17.64,53.68-27.22,84.08-27.22,0,0,0,0,0,0,30.4,0,59.72,9.57,84.08,27.22v211.45c-24.36,17.64-53.68,27.21-84.08,27.21h0Z"/>
    </clipPath>
    <clipPath id="clippath-80">
      <path class="st1" d="M122.02,300.92c-30.4,0-59.72-9.57-84.08-27.21V62.26c24.36-17.64,53.68-27.22,84.08-27.22,0,0,0,0,0,0,30.4,0,59.72,9.57,84.08,27.22v211.45c-24.36,17.64-53.68,27.21-84.08,27.21h0Z"/>
    </clipPath>
    <clipPath id="clippath-81">
      <path class="st1" d="M122.02,300.92c-30.4,0-59.72-9.57-84.08-27.21V62.26c24.36-17.64,53.68-27.22,84.08-27.22,0,0,0,0,0,0,30.4,0,59.72,9.57,84.08,27.22v211.45c-24.36,17.64-53.68,27.21-84.08,27.21h0Z"/>
    </clipPath>
    <clipPath id="clippath-82">
      <path class="st1" d="M122.02,300.92c-30.4,0-59.72-9.57-84.08-27.21V62.26c24.36-17.64,53.68-27.22,84.08-27.22,0,0,0,0,0,0,30.4,0,59.72,9.57,84.08,27.22v211.45c-24.36,17.64-53.68,27.21-84.08,27.21h0Z"/>
    </clipPath>
    <clipPath id="clippath-83">
      <path class="st1" d="M122.02,300.92c-30.4,0-59.72-9.57-84.08-27.21V62.26c24.36-17.64,53.68-27.22,84.08-27.22,0,0,0,0,0,0,30.4,0,59.72,9.57,84.08,27.22v211.45c-24.36,17.64-53.68,27.21-84.08,27.21h0Z"/>
    </clipPath>
    <clipPath id="clippath-84">
      <path class="st1" d="M122.02,300.92c-30.4,0-59.72-9.57-84.08-27.21V62.26c24.36-17.64,53.68-27.22,84.08-27.22,0,0,0,0,0,0,30.4,0,59.72,9.57,84.08,27.22v211.45c-24.36,17.64-53.68,27.21-84.08,27.21h0Z"/>
    </clipPath>
  </defs>
  <path class="st2" d="M0,48.48v239c69.28,63.09,171.25,66.29,244.04,0v-57.07s0-181.93,0-181.93C173.07-16.16,70.98-16.16,0,48.48"/>
  <path class="st90" d="M237.04,51.58C171.85-7.78,72.2-7.78,7.01,51.58v232.8c65.18,59.36,164.84,59.36,230.02,0V51.58"/>
  <path class="st3" d="M26.71,275.36c55.47,45.11,135.16,45.1,190.63,0V60.6c-55.47-45.11-135.16-45.11-190.63,0v214.76ZM18.85,279.05V56.91c61.56-51.31,146.22-50.11,206.33,0v222.14c-60.78,50.74-145.56,50.74-206.33,0"/>
  <path class="st89" d="M186.68,106.02c0,33.94-27.95,61.46-62.44,61.46s-62.44-27.51-62.44-61.46,27.95-61.46,62.44-61.46,62.44,27.51,62.44,61.46"/>
  <path class="st88" d="M140.12,123.58h6.59l-.33-9.35-6.26,9.35ZM165.17,123.45h6.56l-.32-9.31-6.24,9.31ZM172.26,134.7h7.21c-10.47,19.5-31.28,32.78-55.24,32.78-34.48,0-62.44-27.51-62.44-61.46s27.95-61.45,62.44-61.45,62.44,27.51,62.44,61.46c0,9.08-2,17.71-5.6,25.47l-1.8-25.9h-16.2l-1.91,6.65h2.52l-7.99,12.48-1.13-19.13h-16.43l-1.87,6.62,2.51.03-10.73,16.03-8.84-.04c-.93,0-4.5-.84-4.5-5.19s4.21-10.68,8.49-10.68l1.8.04-.94,3.3h7.87l2.82-10.11h-12.12c-7.54,0-13.62,5.3-15.55,10.77l3.15-10.77h-10.79l-1.9,6.65h2.79s-2.81,9.73-2.81,9.73l-7.08-16.38h-10.07l-1.89,6.65h2.77l-6.26,22.45h8.06s3.12-11.13,3.92-13.99c1.14,2.7,5.89,13.99,5.89,13.99h8.98l4.12-14.27c-.38,2.16-.38,4.38-.01,6.54.79,4.67,5.41,7.72,10.45,7.72h16.3l2.82-4.18h11.5l.23,4.18h10.16l2.63-4.18h11.77l.47,4.18M190.66,139.67c0,2.15-1.78,3.9-3.96,3.9s-3.96-1.75-3.96-3.9,1.74-3.9,3.96-3.9,3.96,1.71,3.96,3.9M186.7,134.72c-2.77,0-5.03,2.22-5.03,4.95s2.25,4.95,5.03,4.95,5.03-2.22,5.03-4.95-2.21-4.95-5.03-4.95"/>
  <path class="st88" d="M187.99,138.6c0,.48-.46.81-.89.81h-1.3v-1.66h1.3c.43,0,.89.32.89.85M189.12,138.6c0-1.12-1.05-1.81-2.02-1.81h-2.42v5.78h1.11v-2.18h.71l1.46,2.18h1.35l-1.52-2.24c.48-.12,1.35-.6,1.35-1.73"/>
  <g class="st91">
    <path class="st89" d="M138.78,220.54c.81.97,1.57,2.03,2.32,3.16-.75-1.12-1.51-2.19-2.32-3.16"/>
  </g>
  <g class="st79">
    <path class="st89" d="M143.59,227.71c.08.13.16.27.25.41-.08-.14-.16-.27-.25-.41"/>
  </g>
  <g class="st82">
    <path class="st89" d="M142.34,225.65c.35.57.71,1.15,1.06,1.74-.35-.59-.71-1.17-1.06-1.74"/>
  </g>
  <g class="st80">
    <path class="st89" d="M144.39,229.04c.09.15.19.31.28.46-.09-.15-.19-.31-.28-.46"/>
  </g>
  <g class="st81">
    <path class="st89" d="M161.42,248.55c-.07.07-.14.14-.21.21.07-.07.14-.14.21-.21"/>
  </g>
  <g class="st87">
    <path class="st89" d="M164.64,244.71c-.05.06-.09.13-.13.19.05-.06.09-.13.13-.19"/>
  </g>
  <g class="st84">
    <path class="st89" d="M165.88,242.79c-.06.1-.13.21-.19.31.06-.1.13-.21.19-.31"/>
  </g>
  <g class="st83">
    <path class="st89" d="M163.19,246.58c-.1.12-.2.24-.3.35.1-.12.2-.24.3-.35"/>
  </g>
  <g class="st86">
    <path class="st89" d="M145.71,231.21c.06.1.12.19.18.29-.06-.1-.12-.19-.18-.29"/>
  </g>
  <g class="st85">
    <path class="st89" d="M131.03,215.17c.57.16,1.12.35,1.64.57-.53-.22-1.07-.42-1.64-.57"/>
  </g>
  <g class="st9">
    <path class="st89" d="M148.41,235.28s.07.1.11.14c-.03-.05-.07-.1-.11-.14"/>
  </g>
  <g class="st6">
    <path class="st89" d="M147.02,233.25c.05.08.1.15.15.23l-.15-.23"/>
  </g>
  <g class="st13">
    <path class="st89" d="M166.94,240.7c-.05.12-.1.24-.16.36.05-.12.11-.24.16-.36"/>
  </g>
  <g class="st11">
    <path class="st89" d="M97.88,189.88c.03-.08.06-.17.09-.25-.03.09-.06.17-.09.25"/>
  </g>
  <g class="st12">
    <path class="st89" d="M98.45,188.31c.07-.18.15-.35.23-.52-.08.17-.15.35-.23.52"/>
  </g>
  <g class="st10">
    <path class="st89" d="M100.24,184.92c.09-.13.18-.25.27-.38-.09.13-.18.25-.27.38"/>
  </g>
  <g class="st7">
    <path class="st89" d="M99.18,186.75c.08-.16.16-.32.25-.48-.09.16-.17.32-.25.48"/>
  </g>
  <g class="st4">
    <path class="st89" d="M97.37,192c.03-.17.06-.34.1-.51-.04.17-.06.34-.1.51"/>
  </g>
  <g class="st8">
    <path class="st89" d="M105.34,211.27s-.01,0-.02-.01c0,0,.01,0,.02.01"/>
  </g>
  <g class="st5">
    <path class="st89" d="M97.12,193.77c.02-.18.04-.36.06-.53-.02.18-.04.35-.06.53"/>
  </g>
  <g class="st57">
    <path class="st89" d="M106.44,211.97c-.06-.04-.13-.08-.19-.12.06.04.12.08.19.12"/>
  </g>
  <g class="st58">
    <path class="st89" d="M100.7,206.77c-.05-.07-.1-.15-.16-.23.05.07.1.15.16.23"/>
  </g>
  <g class="st59">
    <path class="st89" d="M126.36,214.66c.1,0,.21-.01.31-.01-.1,0-.21.01-.31.01"/>
  </g>
  <g class="st60">
    <path class="st89" d="M124.55,214.8c.3-.03.59-.07.88-.09-.29.02-.58.06-.88.09"/>
  </g>
  <g class="st61">
    <path class="st89" d="M107.19,212.38c.13.07.26.15.4.22.01,0,.03.01.04.02-.01,0-.02-.01-.04-.02-.14-.07-.27-.15-.4-.22"/>
  </g>
  <g class="st62">
    <path class="st89" d="M102.33,182.34c.14-.15.27-.29.42-.44-.14.14-.28.29-.42.44"/>
  </g>
  <g class="st55">
    <path class="st89" d="M103.87,180.88c.16-.13.32-.25.48-.38-.16.13-.33.25-.48.38"/>
  </g>
  <g class="st53">
    <path class="st89" d="M97.03,195.47s0,.03,0,.05c0,3.74,1.08,7.23,2.93,10.17-1.86-2.94-2.93-6.43-2.93-10.17,0-.02,0-.03,0-.05"/>
  </g>
  <g class="st56">
    <path class="st89" d="M159.7,250.24c-.1.09-.19.18-.29.27.1-.09.19-.18.29-.27"/>
  </g>
  <g class="st54">
    <path class="st89" d="M106.61,178.98c.19-.11.37-.22.56-.32-.19.1-.37.21-.56.32"/>
  </g>
  <g class="st49">
    <path class="st89" d="M153.39,255.36c-.13.1-.27.19-.4.29.14-.1.27-.19.4-.29"/>
  </g>
  <g class="st43">
    <path class="st89" d="M146.33,260.03c-.15.09-.29.18-.44.27.15-.09.29-.18.44-.27"/>
  </g>
  <g class="st44">
    <path class="st89" d="M141.51,262.87c-.09.05-.18.11-.27.16.09-.05.18-.1.27-.16"/>
  </g>
  <g class="st45">
    <path class="st89" d="M151,257.04c-.13.09-.26.17-.39.26.13-.09.26-.17.39-.26"/>
  </g>
  <g class="st46">
    <path class="st89" d="M148.63,258.59c-.06.04-.12.08-.18.11.06-.04.12-.08.18-.11"/>
  </g>
  <g class="st47">
    <path class="st89" d="M139.14,264.2c-.13.07-.26.15-.39.22l.39-.22"/>
  </g>
  <g class="st50">
    <path class="st89" d="M143.79,261.55c-.09.05-.19.11-.28.16.09-.05.19-.11.28-.16"/>
  </g>
  <g class="st51">
    <path class="st89" d="M132.7,204.99c1.6-2.79,2.52-6.03,2.52-9.47,0-10.55-8.55-19.1-19.09-19.1-2.74,0-5.34.59-7.7,1.63-2.41,3.2-3.84,7.17-3.84,11.48,0,10.55,8.55,19.1,19.1,19.1,1.28,0,2.53-.13,3.74-.37,8.99.25,19.74,13.68,28.9,25.55-1.85.83-3.3,1.67-5.7,3.06,0,0,0,0,0,0h0c-.07.04-.14.08-.21.12-.26.15-.52.3-.79.45-.12.07-.25.15-.37.22-.23.13-.46.27-.7.41-.11.06-.21.12-.32.19-1.22.71-2.49,1.46-3.79,2.22l-.1.06c-.29.17-.59.34-.88.51-2.38-4.61-9.17-16.7-19.34-26.2-.05,0-.1,0-.15.02-1.6.22-2.91.21-3.96.09.04,0,.08.01.12.01,9.38,10.25,15.28,23.09,17.78,29.25-2.41,1.35-4.86,2.66-7.29,3.87h0c-3.32,1.92-9.9,4.21-9.9,4.21-5.91,1.96-10.3,4.32-13.63,6.67-1.18.83-2.21,1.69-3.12,2.56h0c.91-.87,1.94-1.72,3.12-2.56-14.33,11.36-.02,31.1,13.8,21.91,0,0-3.87,5.47-6.04,13.79l-4.38,3.39c-.04-.26,2.05.25,2.01,0l-.8-1.61c.04.25.76,1.35.8,1.61l-1.41,3.41c.97,1.81-7.62,4.42-7.62,4.42h32.98c.02-2.05.4,1.79,1.04,0,0-11.47,1.82-27.18-.77-40.36-2.74,1.49-5.3,2.84-7.49,4.04,2.8-12.11,27.87-15.29,38.44-30.71,0,0,0,0,0,0-11.56-17.09-25.84-29.48-34.94-33.87"/>
  </g>
  <g class="st52">
    <path class="st2" d="M106.61,178.98c-.29.17-.57.34-.85.52-.2.13-.39.26-.59.4-.28.19-.55.4-.81.61-.16.13-.33.25-.48.38-.39.32-.76.66-1.12,1.02-.14.14-.28.29-.42.44-.39.41-.76.83-1.12,1.27-.24.3-.47.62-.7.93-.09.13-.19.25-.27.38-.29.44-.56.89-.82,1.35-.09.16-.17.32-.25.48-.18.34-.35.69-.5,1.04-.08.17-.15.35-.23.52-.18.43-.34.87-.48,1.32-.03.09-.06.17-.09.25-.16.53-.3,1.07-.41,1.61-.04.17-.06.34-.1.51-.08.41-.14.82-.19,1.24-.02.18-.04.35-.06.53-.05.56-.08,1.13-.09,1.7,0,.01,0,.03,0,.05,0,3.74,1.08,7.23,2.93,10.17.18.29.38.57.58.85.05.07.1.15.16.23,1.28,1.75,2.84,3.27,4.63,4.49,0,0,.01,0,.02.01.3.2.6.39.91.58.06.04.12.08.19.12.24.14.5.27.75.41.14.07.27.15.4.22.01,0,.02.01.04.02.06.03.13.07.19.1,10.29,5.46,16.58,15.17,22.8,35.37h0c2.44-1.21,4.89-2.53,7.29-3.87-2.49-6.16-8.4-19-17.78-29.25-.04,0-.08,0-.12-.01,1.05.12,2.36.13,3.96-.09.05,0,.1,0,.15-.02.13-.02.26-.03.39-.04.01,0,.02,0,.03,0,.3-.03.59-.07.88-.09,0,0,0,0,0,0,.31-.02.61-.03.91-.04,0,0,.01,0,.02,0,.1,0,.21-.01.31-.01h0c.76-.01,1.47.03,2.16.11.04,0,.09,0,.13.01.63.08,1.25.2,1.87.36.07.02.14.03.2.05.57.16,1.12.35,1.64.57.07.03.15.06.22.09.58.26,1.14.56,1.68.9.47.29.91.61,1.34.95.06.05.13.1.19.15.43.36.85.73,1.25,1.13.05.05.09.1.14.15.42.42.81.86,1.19,1.31.03.03.05.07.08.1.81.97,1.57,2.04,2.32,3.16.02.03.04.06.06.09.36.55.72,1.11,1.07,1.68.04.06.07.11.11.17.35.57.71,1.15,1.06,1.74.06.11.13.21.19.32.08.13.16.27.25.41.18.31.37.61.55.92.09.15.19.31.28.46.34.57.69,1.14,1.05,1.71.06.1.12.19.18.29.37.58.74,1.17,1.12,1.75l.15.23c.4.6.81,1.2,1.24,1.79.03.05.07.1.11.14.45.62.91,1.24,1.4,1.85.21-.12.4-.23.59-.34,2.48-1.43,3.94-2.29,5.82-3.13-9.15-11.87-19.9-25.3-28.9-25.55-1.21.24-2.46.37-3.74.37-10.55,0-19.1-8.55-19.1-19.1,0-4.31,1.43-8.29,3.84-11.48-.43.19-.86.39-1.27.61-.19.1-.37.21-.56.32"/>
  </g>
  <g class="st48">
    <path class="st2" d="M141.09,223.7s.04.06.06.09c-.02-.03-.04-.06-.06-.09"/>
  </g>
  <g class="st70">
    <path class="st2" d="M147.17,233.48c.4.6.81,1.2,1.24,1.79-.43-.59-.84-1.19-1.24-1.79"/>
  </g>
  <g class="st64">
    <path class="st2" d="M143.83,228.12c.18.3.37.61.55.92-.19-.31-.37-.61-.55-.92"/>
  </g>
  <g class="st65">
    <path class="st2" d="M138.7,220.44s.05.07.08.1c-.03-.03-.05-.07-.08-.1"/>
  </g>
  <g class="st66">
    <path class="st2" d="M143.4,227.39c.06.11.13.21.19.32-.06-.11-.13-.21-.19-.32"/>
  </g>
  <g class="st67">
    <path class="st2" d="M126.34,214.66c-.3,0-.6.02-.91.04,0,0,0,0,0,0,.32-.02.62-.04.93-.05,0,0-.01,0-.02,0"/>
  </g>
  <g class="st68">
    <path class="st2" d="M132.68,215.75c.07.03.15.06.22.09-.07-.03-.15-.06-.22-.09"/>
  </g>
  <g class="st71">
    <path class="st2" d="M126.67,214.65h0,0,0"/>
  </g>
  <g class="st72">
    <path class="st2" d="M137.36,218.98s.09.1.14.15c-.05-.05-.09-.1-.14-.15"/>
  </g>
  <g class="st73">
    <path class="st2" d="M130.83,215.13c.07.02.14.03.2.05-.07-.02-.14-.03-.2-.05"/>
  </g>
  <g class="st69">
    <path class="st2" d="M148.51,235.42c.45.62.91,1.24,1.4,1.85.21-.12.39-.23.59-.34-.19.11-.38.22-.59.34-.49-.61-.95-1.23-1.4-1.85"/>
  </g>
  <g class="st27">
    <path class="st2" d="M124.52,214.8c-.13.02-.26.03-.39.04.14-.02.28-.03.42-.05-.01,0-.02,0-.03,0"/>
  </g>
  <g class="st40">
    <path class="st2" d="M128.84,214.76s.09,0,.13.01c-.04,0-.09,0-.13-.01"/>
  </g>
  <g class="st29">
    <path class="st0" d="M107.82,212.72c10.29,5.46,16.58,15.17,22.8,35.37h0c-6.23-20.2-12.51-29.91-22.8-35.37"/>
  </g>
  <g class="st33">
    <path class="st0" d="M106.25,211.85c-.31-.19-.62-.38-.91-.58.3.2.6.39.91.58"/>
  </g>
  <g class="st31">
    <path class="st0" d="M97.03,195.47c0-.57.03-1.14.09-1.7-.05.56-.08,1.13-.09,1.7"/>
  </g>
  <g class="st28">
    <path class="st0" d="M97.46,191.49c.12-.55.25-1.08.41-1.61-.16.53-.3,1.07-.41,1.61"/>
  </g>
  <g class="st32">
    <path class="st0" d="M99.43,186.27c.26-.46.53-.91.82-1.35-.29.44-.56.89-.82,1.35"/>
  </g>
  <g class="st30">
    <path class="st0" d="M105.75,179.5c.28-.18.57-.35.85-.52-.29.17-.57.34-.85.52"/>
  </g>
  <g class="st41">
    <path class="st0" d="M100.54,206.54c-.2-.28-.39-.56-.58-.85.18.29.38.57.58.85"/>
  </g>
  <g class="st42">
    <path class="st0" d="M104.35,180.5c.27-.21.53-.41.81-.61-.28.19-.55.4-.81.61"/>
  </g>
  <g class="st17">
    <path class="st0" d="M98.68,187.79c.16-.35.32-.7.5-1.04-.18.34-.34.69-.5,1.04"/>
  </g>
  <g class="st14">
    <path class="st0" d="M107.19,212.38c-.25-.13-.51-.26-.75-.41.24.14.5.27.75.41"/>
  </g>
  <g class="st19">
    <path class="st0" d="M107.16,178.66c.41-.22.84-.42,1.27-.61,0,0,0,0,0-.01-.43.19-.86.4-1.28.62"/>
  </g>
  <g class="st22">
    <path class="st2" d="M138.75,264.41c.13-.07.26-.14.39-.22.69-.38,1.39-.77,2.09-1.17.09-.05.18-.1.27-.16.66-.38,1.33-.76,2-1.15.09-.05.19-.11.28-.16.7-.41,1.4-.83,2.1-1.25.15-.09.29-.18.44-.27.71-.43,1.42-.88,2.12-1.32.06-.04.12-.08.18-.11.66-.42,1.32-.85,1.97-1.29.13-.09.26-.17.39-.26.67-.45,1.34-.92,1.99-1.39.14-.1.27-.19.4-.29.66-.48,1.3-.95,1.94-1.44.02-.02.05-.03.07-.05.64-.5,1.27-1,1.88-1.51.13-.11.26-.21.39-.32.59-.5,1.18-1.01,1.74-1.53.1-.09.19-.18.29-.27.52-.49,1.03-.98,1.51-1.47.07-.07.14-.14.21-.21.51-.53,1-1.07,1.47-1.62.1-.12.2-.24.3-.35.46-.55.9-1.11,1.31-1.67.05-.06.09-.13.13-.19.38-.53.73-1.07,1.05-1.61.06-.1.13-.21.19-.31.33-.57.63-1.15.91-1.74.05-.12.11-.24.16-.36.27-.61.51-1.22.7-1.83,0,0,0,0,0,0-10.56,15.42-35.64,18.6-38.44,30.71,2.19-1.2,4.75-2.55,7.49-4.04.69-.37,1.37-.75,2.05-1.12"/>
  </g>
  <g class="st20">
    <path class="st2" d="M167.64,238.86s0,0,0,0c-.19.62-.43,1.23-.7,1.83.27-.61.51-1.22.7-1.84"/>
  </g>
  <g class="st18">
    <path class="st2" d="M157.28,252.36c-.61.51-1.24,1.02-1.88,1.51.64-.5,1.27-1,1.88-1.51"/>
  </g>
  <g class="st21">
    <path class="st2" d="M164.5,244.9c-.41.57-.85,1.12-1.31,1.67.46-.55.9-1.11,1.31-1.67"/>
  </g>
  <g class="st15">
    <path class="st2" d="M155.33,253.92c-.63.49-1.28.97-1.94,1.44.66-.48,1.3-.95,1.94-1.44"/>
  </g>
  <g class="st16">
    <path class="st2" d="M167.64,238.87s0,0,0,0c0,0,0,0,0,0"/>
  </g>
  <g class="st63">
    <path class="st2" d="M145.89,260.3c-.7.42-1.4.84-2.1,1.25.7-.41,1.4-.83,2.1-1.25"/>
  </g>
  <g class="st34">
    <path class="st89" d="M87.27,235.24c-.05-.16-.11-.33-.15-.49.04.16.1.32.15.49"/>
  </g>
  <g class="st37">
    <path class="st89" d="M86.83,233.52c-.05-.25-.08-.5-.12-.75.04.25.07.5.12.75"/>
  </g>
  <g class="st39">
    <path class="st89" d="M113.04,250.28c-.06.12-.13.23-.2.34.07-.11.13-.22.2-.34"/>
  </g>
  <g class="st38">
    <path class="st89" d="M113.76,248.03c-.16.8-.37,1.49-.64,2.07.27-.58.48-1.27.64-2.07"/>
  </g>
  <g class="st36">
    <path class="st89" d="M87.81,236.76c-.06-.16-.12-.32-.18-.47.06.16.12.31.18.47"/>
  </g>
  <g class="st25">
    <path class="st89" d="M112.18,251.44c-.05.05-.11.1-.16.14.06-.04.11-.09.16-.14"/>
  </g>
  <g class="st23">
    <path class="st89" d="M86.65,232.29c-.1-.99-.1-1.95,0-2.84.29,1.48.84,3.03,1.75,4.66,5.71,10.26,19.47,13.89,25.51,12.99-.04.3-.09.6-.15.9.74-3.84.2-9.91-2.01-15.94-3.39-9.26-10.9-14.12-17.17-12-4.84,1.64-8.6,6.03-7.93,12.24"/>
  </g>
  <g class="st35">
    <path class="st2" d="M113.12,250.1c-.03.06-.05.12-.08.18.03-.06.05-.12.08-.18"/>
  </g>
  <g class="st24">
    <path class="st2" d="M112.85,250.62c-.06.11-.13.21-.2.3.07-.09.13-.2.2-.3"/>
  </g>
  <g class="st26">
    <path class="st2" d="M112.46,251.16c-.09.1-.18.2-.28.28.1-.09.19-.18.28-.28"/>
  </g>
  <g class="st74">
    <path class="st2" d="M113.77,247.98v.05s0-.05,0-.05"/>
  </g>
  <g class="st75">
    <path class="st2" d="M88.49,238.28c-.26-.52-.48-1.02-.68-1.52.2.5.42,1.01.68,1.52"/>
  </g>
  <g class="st76">
    <path class="st2" d="M112.02,251.58c-.16.12-.33.22-.5.28.18-.06.34-.16.5-.28"/>
  </g>
  <g class="st77">
    <path class="st2" d="M88.41,234.1c-.91-1.63-1.46-3.18-1.75-4.66-.11.9-.11,1.85,0,2.84.02.16.04.32.06.49.03.25.07.5.12.75.08.41.18.82.29,1.23.04.16.1.32.15.49.11.34.22.69.36,1.04.06.16.12.31.18.47.2.5.42,1.01.68,1.52,5.6,11.22,18.82,15.12,23.02,13.58.18-.06.34-.16.5-.28.06-.04.11-.09.16-.14.1-.09.2-.18.28-.28.07-.08.13-.15.19-.23.07-.09.13-.2.2-.3.07-.11.13-.22.2-.34.03-.06.05-.12.08-.18.27-.58.48-1.27.64-2.07v-.05c.06-.29.11-.59.15-.9-6.04.9-19.79-2.73-25.51-12.99"/>
  </g>
  <g class="st78">
    <path class="st2" d="M107.09,258.97c-14.58,10.28-9.01,33.13-3.65,46.93h10.22c.25-7.78,7.23-25.01,7.23-25.01-13.82,9.19-28.13-10.56-13.8-21.91"/>
  </g>
</svg>