<?xml version="1.0" encoding="UTF-8"?>
<svg id="Layer_1" xmlns="http://www.w3.org/2000/svg" xmlns:xlink="http://www.w3.org/1999/xlink" version="1.1" viewBox="0 0 244.04 336">
  <!-- Generator: Adobe Illustrator 30.0.0, SVG Export Plug-In . SVG Version: 2.1.1 Build 123)  -->
  <defs>
    <style>
      .st0 {
        fill: none;
      }

      .st1 {
        fill: #c9d0dc;
      }

      .st2 {
        fill: #107fcb;
      }

      .st3 {
        clip-path: url(#clippath-1);
      }

      .st4 {
        clip-path: url(#clippath-3);
      }

      .st5 {
        clip-path: url(#clippath-4);
      }

      .st6 {
        clip-path: url(#clippath-2);
      }

      .st7 {
        clip-path: url(#clippath-5);
      }

      .st8 {
        fill: #45a5e1;
      }

      .st9 {
        fill: #fff;
      }

      .st10 {
        fill: #010a10;
      }

      .st11 {
        clip-path: url(#clippath);
      }
    </style>
    <clipPath id="clippath">
      <path class="st0" d="M122.02,300.92c-30.4,0-59.72-9.57-84.08-27.21V62.26c24.36-17.64,53.68-27.22,84.08-27.22,0,0,0,0,0,0,30.4,0,59.72,9.57,84.08,27.22v211.45c-24.36,17.64-53.68,27.21-84.08,27.21h0Z"/>
    </clipPath>
    <clipPath id="clippath-1">
      <path class="st0" d="M122.02,300.92c-30.4,0-59.72-9.57-84.08-27.21V62.26c24.36-17.64,53.68-27.22,84.08-27.22,0,0,0,0,0,0,30.4,0,59.72,9.57,84.08,27.22v211.45c-24.36,17.64-53.68,27.21-84.08,27.21h0Z"/>
    </clipPath>
    <clipPath id="clippath-2">
      <path class="st0" d="M122.02,300.92c-30.4,0-59.72-9.57-84.08-27.21V62.26c24.36-17.64,53.68-27.22,84.08-27.22,0,0,0,0,0,0,30.4,0,59.72,9.57,84.08,27.22v211.45c-24.36,17.64-53.68,27.21-84.08,27.21h0Z"/>
    </clipPath>
    <clipPath id="clippath-3">
      <path class="st0" d="M122.02,300.92c-30.4,0-59.72-9.57-84.08-27.21V62.26c24.36-17.64,53.68-27.22,84.08-27.22,0,0,0,0,0,0,30.4,0,59.72,9.57,84.08,27.22v211.45c-24.36,17.64-53.68,27.21-84.08,27.21h0Z"/>
    </clipPath>
    <clipPath id="clippath-4">
      <path class="st0" d="M122.02,300.92c-30.4,0-59.72-9.57-84.08-27.21V62.26c24.36-17.64,53.68-27.22,84.08-27.22,0,0,0,0,0,0,30.4,0,59.72,9.57,84.08,27.22v211.45c-24.36,17.64-53.68,27.21-84.08,27.21h0Z"/>
    </clipPath>
    <clipPath id="clippath-5">
      <path class="st0" d="M122.02,300.92c-30.4,0-59.72-9.57-84.08-27.21V62.26c24.36-17.64,53.68-27.22,84.08-27.22,0,0,0,0,0,0,30.4,0,59.72,9.57,84.08,27.22v211.45c-24.36,17.64-53.68,27.21-84.08,27.21h0Z"/>
    </clipPath>
  </defs>
  <path class="st1" d="M0,48.48v239c69.28,63.09,171.25,66.29,244.04,0v-57.07s0-181.93,0-181.93C173.07-16.16,70.98-16.16,0,48.48"/>
  <path class="st10" d="M237.04,51.58C171.85-7.78,72.2-7.78,7.01,51.58v232.8c65.18,59.36,164.84,59.36,230.02,0V51.58"/>
  <path class="st2" d="M26.71,275.36c55.47,45.11,135.16,45.1,190.63,0V60.6c-55.47-45.11-135.16-45.11-190.63,0v214.76ZM18.85,279.05V56.91c61.56-51.31,146.22-50.11,206.33,0v222.14c-60.78,50.74-145.56,50.74-206.33,0"/>
  <path class="st9" d="M186.68,106.02c0,33.94-27.95,61.46-62.44,61.46s-62.44-27.51-62.44-61.46,27.95-61.46,62.44-61.46,62.44,27.51,62.44,61.46"/>
  <path class="st8" d="M140.12,123.58h6.59l-.33-9.35-6.26,9.35ZM165.17,123.45h6.56l-.32-9.31-6.24,9.31ZM172.26,134.7h7.21c-10.47,19.5-31.28,32.78-55.24,32.78-34.48,0-62.44-27.51-62.44-61.46s27.95-61.45,62.44-61.45,62.44,27.51,62.44,61.46c0,9.08-2,17.71-5.6,25.47l-1.8-25.9h-16.2l-1.91,6.65h2.52l-7.99,12.48-1.13-19.13h-16.43l-1.87,6.62,2.51.03-10.73,16.03-8.84-.04c-.93,0-4.5-.84-4.5-5.19s4.21-10.68,8.49-10.68l1.8.04-.94,3.3h7.87l2.82-10.11h-12.12c-7.54,0-13.62,5.3-15.55,10.77l3.15-10.77h-10.79l-1.9,6.65h2.79s-2.81,9.73-2.81,9.73l-7.08-16.38h-10.07l-1.89,6.65h2.77l-6.26,22.45h8.06s3.12-11.13,3.92-13.99c1.14,2.7,5.89,13.99,5.89,13.99h8.98l4.12-14.27c-.38,2.16-.38,4.38-.01,6.54.79,4.67,5.41,7.72,10.45,7.72h16.3l2.82-4.18h11.5l.23,4.18h10.16l2.63-4.18h11.77l.47,4.18M190.66,139.67c0,2.15-1.78,3.9-3.96,3.9s-3.96-1.75-3.96-3.9,1.74-3.9,3.96-3.9,3.96,1.71,3.96,3.9M186.7,134.72c-2.77,0-5.03,2.22-5.03,4.95s2.25,4.95,5.03,4.95,5.03-2.22,5.03-4.95-2.21-4.95-5.03-4.95"/>
  <path class="st8" d="M187.99,138.6c0,.48-.46.81-.89.81h-1.3v-1.66h1.3c.43,0,.89.32.89.85M189.12,138.6c0-1.12-1.05-1.81-2.02-1.81h-2.42v5.78h1.11v-2.18h.71l1.46,2.18h1.35l-1.52-2.24c.48-.12,1.35-.6,1.35-1.73"/>
  <g class="st11">
    <path class="st9" d="M134.12,202.77c.53-2.22,1.98-4.07,4.06-5.46.62,1.7,1.68,4.63,2.73,7.5-3.2.05-5.73.09-7.01.11-.02-.72.05-1.44.22-2.15M155.6,207.73l-1.04,6.28c-4.77.49-7.22-.29-9.11-4.97-.21-.52-.41-1.03-.62-1.55,6.43.14,10.76.24,10.76.24M117.68,214.43c3.45,0,6.72.76,9.67,2.12.04.02.09.04.13.06.7.29,1.46.44,2.22.44,3.19,0,5.79-2.59,5.79-5.79,0-.74-.14-1.45-.4-2.09-.13-.25-.25-.5-.36-.76-.16-.37-.3-.75-.41-1.13,2.67.05,5.22.11,7.57.15.14.37.27.74.4,1.09,1.97,5.29,3.39,9.37,14.46,8.57.28-.02.51-.23.55-.51.63-3.8,1.23-7.6,1.81-11.4.05-.31-.19-.59-.5-.59-4.94.03-10.31.1-14.84.16-1.2-3.07-2.53-6.53-3.38-8.65,3.1-1.37,7.06-1.96,11.33-1.58-1.86-10.29-10.86-18.1-21.69-18.1-12.18,0-22.05,9.87-22.05,22.05,0,6.36,2.7,12.09,7.01,16.12.88-.1,1.78-.16,2.69-.16"/>
  </g>
  <g class="st3">
    <path class="st9" d="M198.41,265.8c-.04-.09-.07-.17-.11-.25.21-2.01,1.48-20.12-19.44-28.03,1.79-13.3-35.49-13.65-48.9-13.11-4.91.2-9.81.57-14.5,1.12,0,.01,0,.02.01.03-18.95,2.26-34.46,7.73-33.43,18.64-6.54,1.07-11.98,4.19-11.98,4.19.53-10.89,5.16-19.9,8.23-24.76,5.79-4.1,9.56-10.46,10.44-17.4-.85-.87-1.77-1.68-2.74-2.42-.77-5.16-13.94-8.4-18.38-4.98-1.63.2-3.23.56-4.79,1.08-9.53,3.14-15.91,11.43-17.09,20.76,3.93,4.02,9.11,6.62,14.68,7.37-4.6,10.51-6.11,23.18-10.26,37.13,19.32,7.46,33.39-2.62,49.75-3.92,5,11.25,14.51,53.85,14.51,53.85l52.86-18.96c-5.46-27.83.1-17.42,2.76-31.45,7.78,3.74,16.57,5.58,28.39,1.11"/>
  </g>
  <g class="st6">
    <path class="st1" d="M115.46,225.53c3.05,9.41,11.15,13.18,11.15,13.18,4.7-8.44,11.59-12.59,15.77-14.44-4.07-.08-8.25-.03-12.42.14-4.91.2-9.81.57-14.5,1.12"/>
  </g>
  <g class="st4">
    <path class="st1" d="M136.8,235.07c3.2,1.62,7.34,5.07,6.21,8.91-1.13,3.83-7.16,2.37-7.89,6,23.06-1.32,33.72,27,63.29,15.82-6.25-14.81-23.4-17.85-23.4-17.85-2.82,1.66-5.49,1.97-8.06,1.43-10.46-2.19-19.28-18.39-30.14-14.31"/>
  </g>
  <g class="st5">
    <path class="st1" d="M50.05,265.17c19.36,7.48,33.45-2.63,49.86-3.93,5.01,11.27,10.93,39.84,14.01,53.85h32.21c-3.21-16.15-10.59-28.01-15.42-38.33,0,0-4.44-.09-8.85-1.05-10.71-22.86-24.7-31.94-34.88-30.62,3.08,1.33,5.85,4.02,8.34,7.68-13.38,7.12-30.31,7.2-30.31,7.2.71-6.87,5-11.61,5-11.61.53-10.91,5.17-19.94,8.25-24.81,5.8-4.1,9.57-10.46,10.46-17.41-5.21,5.77-11.94,10.31-19.86,12.92-7.77,2.56-15.73,2.95-23.23,1.51,0,0,0,0,0,0,3.94,4.03,9.13,6.63,14.71,7.39-4.61,10.53-6.12,23.23-10.29,37.21"/>
  </g>
  <g class="st7">
    <path class="st1" d="M131.3,207.2c-.29.55-.68,1.05-1.14,1.48-.52.48-1.13.8-1.81.98-.48.13-.99.18-1.52.16.32-.06.62-.16.9-.31.18-.1.36-.23.51-.37,1.37-1.27,1.75-3.52-.53-5.4-2.73-2.25-6.59-1.73-7.49-.85-.52.5-.08,2.08,1.03,3.69-.47-.31-.93-.64-1.37-.99-5.18-4.04-8.52-10.34-8.52-17.42,0-.54.03-1.07.06-1.59-2.19,3.43-3.48,7.49-3.48,11.87,0,6.38,2.71,12.12,7.03,16.15.89-.1,1.78-.16,2.7-.16,3.46,0,6.74.76,9.69,2.12.04.02.08.04.13.06.7.29,1.46.44,2.22.44,3.2,0,5.8-2.6,5.8-5.8,0-.74-.14-1.45-.4-2.1-.13-.25-.25-.51-.36-.76-.16-.38-.3-.75-.41-1.13-.86-.02-2.9-.06-3.05-.06"/>
  </g>
</svg>