<?xml version="1.0" encoding="UTF-8"?>
<svg id="Layer_1" xmlns="http://www.w3.org/2000/svg" version="1.1" viewBox="0 0 159.41 163.63">
  <!-- Generator: Adobe Illustrator 30.0.0, SVG Export Plug-In . SVG Version: 2.1.1 Build 123)  -->
  <defs>
    <style>
      .st0 {
        fill: #a3fe00;
      }

      .st1 {
        fill: #9b4ff6;
      }
    </style>
  </defs>
  <path class="st0" d="M105.43,26.34c-1.05,0-2.23.12-3.48.38l-61.98,12.24c-4.66.94-9.28,5.91-9.84,10.66h0l-8.58,69.24,18.06-28.84c1.2-1.41,2.87-2.17,4.6-2.17l34.81-.61c4.95-.03,10.98-4.07,12.88-8.64l17.36-42.95c1.38-3.34,1.64-6.29.67-7.73-.94-1.41-3.48-1.55-4.51-1.55v-.03ZM92.93,42.62h0v.09l-.06.09c-.29.67-.85,1.14-1.35,1.61-.09.09-.18.15-.26.23h0v.03c-1.99,1.67-3.95,3.16-6.03,4.74-.97.73-1.96,1.49-2.96,2.28-1.02.79-2.02,1.58-2.93,2.34l-.09.09c-1.17,1.05-2.49,2.23-2.64,3.45-.09,1.49,1.73,2.93,3.48,4.33,1.38,1.08,2.66,2.14,3.37,3.37h0v.09c.44.91.29,1.64.09,2.11-.56,1.29-2.05,1.76-3.25,2.14-.09.03-.18.06-.26.09h-.12c-7.44,1.87-17.45,4.25-26.29,6.35-4.92,1.17-9.54,2.25-13.44,3.19h0c-.23.06-.5.12-.79.18-1.11.26-2.28.53-3.13.5h-.18c-.82-.09-1.23-.67-1.35-1.14-.15-.64.12-1.23.79-1.79.23-.18.5-.35.79-.56h0c3.25-1.96,6.68-3.86,10.01-5.71,1.96-1.08,3.98-2.2,5.97-3.34h0c.82-.47,1.7-.97,2.49-1.46.67-.41,2.23-1.38,2.84-2.25h0c.29-.44.41-.82-.06-1.55-.5-.79-1.43-1.61-2.34-2.4-.88-.76-1.7-1.46-2.2-2.25-.76-1.02-.79-1.9-.73-2.46.09-.56.38-1.32,1.32-1.99.61-.44,1.43-.88,2.66-1.35h0c6.12-2.11,13.41-4.45,20.5-6.73,3.63-1.17,7.06-2.28,10.07-3.28h0c.2-.06.41-.12.61-.18,1.14-.35,2.34-.73,3.31-.88h0c.26-.03.5-.03.7,0,.67.09,1.02.47,1.17.7.23.38.32.85.18,1.29l.09.03Z"/>
  <path class="st0" d="M152.83,34.74c-2.08-3.07-5.59-5.48-8.7-7.58-.85-.59-1.67-1.14-2.43-1.7-3.81-2.78-7.73-5.5-11.54-8.14-.97-.67-1.93-1.35-2.93-2.02h-.03c-3.63-2.55-7.41-5.18-11.71-6.76-2.46-.91-4.92-1.35-7.55-1.35-1.67,0-3.45.18-5.59.53-3.07.53-6.18,1.14-9.19,1.7-1.38.26-2.78.53-4.19.79l-35.72,6.73c-1.93.35-3.89.73-5.8,1.08-3.81.7-7.76,1.43-11.62,2.2h-.06c-6.12,1.23-12.03,4.68-16.63,9.66-4.63,5.01-7.58,11.16-8.32,17.36h0L1.4,129.61c-.67,5.48.56,9.98,3.6,13.44.26.29,1,1.14,5.39,3.69,2.55,1.49,5.8,3.22,9.13,4.92,3.43,1.73,6.76,3.31,9.37,4.39,4.22,1.79,5.62,1.99,6.27,1.99,5.48,0,8.87-2.87,11.59-5.18h0l.06-.06h0l.35-.29h.03l.03-.09.59-.61h.03l.03-.09,26.23-31.45,30.13,1.29c1.23.09,2.43.12,3.6.12,7.29,0,13.64-1.67,18.83-4.98,5.24-3.34,9.4-8.32,12.3-14.84l16.54-37.42h0v-.03l.12-.32h0v-.03c1.9-5.21,2.84-9.75,2.84-13.94,0-4.71-1.26-8.87-3.69-12.38-.7-1.02-1.38-2.02-2.05-2.99h.12ZM129.91,51.4l-16.54,37.42c-4.68,10.57-12.82,15.72-24.83,15.72-1.02,0-2.11-.03-3.19-.12l-32.09-1.38h-.12c-.67,0-1.61.35-2.11.79l-27.7,33.23-.35.29c-2.34,1.99-4.19,3.54-7.14,3.54-2.02,0-3.95-.88-5.3-2.4-1.73-1.93-2.34-4.57-1.93-8.05l9.43-82.33c1.2-9.87,9.78-19.12,19.5-21.11l68.83-13c1-.15,1.93-.2,2.84-.2,8.7,0,13.09,6.5,18.53,14.49.67,1,1.38,2.02,2.08,3.05,3.28,4.71,3.28,11.24.06,20l.03.06Z"/>
  <path class="st1" d="M91.55,40.63h-.7c-.97.15-2.14.5-3.31.88-.2.06-.41.12-.61.18h0c-3.04,1-6.47,2.11-10.07,3.28-7.06,2.28-14.38,4.63-20.5,6.73h0c-1.23.47-2.08.88-2.66,1.35-.94.67-1.23,1.46-1.32,1.99-.09.56-.03,1.43.73,2.46.53.76,1.35,1.49,2.2,2.25.91.79,1.84,1.61,2.34,2.4.44.73.35,1.11.06,1.55h0c-.61.88-2.17,1.84-2.84,2.25-.79.5-1.67,1-2.49,1.46h0c-1.99,1.14-4.01,2.25-5.97,3.34-3.34,1.84-6.76,3.75-10.01,5.71h0c-.29.2-.56.38-.79.56-.67.53-.94,1.14-.79,1.79.12.5.53,1.05,1.35,1.14h.18c.85,0,2.02-.26,3.13-.5.26-.06.53-.12.79-.18h0c3.86-.94,8.52-2.05,13.44-3.19,8.84-2.08,18.83-4.48,26.29-6.35h.12c.09,0,.18-.06.26-.09,1.2-.38,2.72-.88,3.25-2.14.2-.47.35-1.2-.09-2.11h0v-.09c-.7-1.26-1.99-2.28-3.37-3.37-1.76-1.41-3.54-2.84-3.48-4.33.15-1.23,1.46-2.43,2.64-3.45l.09-.09c.91-.76,1.9-1.55,2.93-2.34,1.02-.79,2.02-1.55,2.96-2.28,2.08-1.58,4.07-3.1,6.03-4.74h0v-.03c.09-.09.18-.18.26-.23.53-.47,1.05-.94,1.35-1.61v-.09l.06-.09h0c.12-.44.06-.91-.18-1.29-.15-.23-.5-.61-1.17-.7l-.09-.03Z"/>
</svg>