<?xml version="1.0" encoding="UTF-8"?>
<svg id="Layer_1" xmlns="http://www.w3.org/2000/svg" xmlns:xlink="http://www.w3.org/1999/xlink" version="1.1" viewBox="0 0 244.04 336">
  <!-- Generator: Adobe Illustrator 30.0.0, SVG Export Plug-In . SVG Version: 2.1.1 Build 123)  -->
  <defs>
    <style>
      .st0 {
        fill: none;
      }

      .st1 {
        fill: #c9d0dc;
      }

      .st2 {
        fill: #107fcb;
      }

      .st3 {
        clip-path: url(#clippath-1);
      }

      .st4 {
        clip-path: url(#clippath-3);
      }

      .st5 {
        clip-path: url(#clippath-4);
      }

      .st6 {
        clip-path: url(#clippath-2);
      }

      .st7 {
        fill: #45a5e1;
      }

      .st8 {
        fill: #fff;
      }

      .st9 {
        fill: #010a10;
      }

      .st10 {
        clip-path: url(#clippath);
      }
    </style>
    <clipPath id="clippath">
      <path class="st0" d="M122.02,300.92c-30.4,0-59.72-9.57-84.08-27.21V62.26c24.36-17.64,53.68-27.22,84.08-27.22,0,0,0,0,0,0,30.4,0,59.72,9.57,84.08,27.22v211.45c-24.36,17.64-53.68,27.21-84.08,27.21h0Z"/>
    </clipPath>
    <clipPath id="clippath-1">
      <path class="st0" d="M122.02,300.92c-30.4,0-59.72-9.57-84.08-27.21V62.26c24.36-17.64,53.68-27.22,84.08-27.22,0,0,0,0,0,0,30.4,0,59.72,9.57,84.08,27.22v211.45c-24.36,17.64-53.68,27.21-84.08,27.21h0Z"/>
    </clipPath>
    <clipPath id="clippath-2">
      <path class="st0" d="M122.02,300.92c-30.4,0-59.72-9.57-84.08-27.21V62.26c24.36-17.64,53.68-27.22,84.08-27.22,0,0,0,0,0,0,30.4,0,59.72,9.57,84.08,27.22v211.45c-24.36,17.64-53.68,27.21-84.08,27.21h0Z"/>
    </clipPath>
    <clipPath id="clippath-3">
      <path class="st0" d="M122.02,300.92c-30.4,0-59.72-9.57-84.08-27.21V62.26c24.36-17.64,53.68-27.22,84.08-27.22,0,0,0,0,0,0,30.4,0,59.72,9.57,84.08,27.22v211.45c-24.36,17.64-53.68,27.21-84.08,27.21h0Z"/>
    </clipPath>
    <clipPath id="clippath-4">
      <path class="st0" d="M122.02,300.92c-30.4,0-59.72-9.57-84.08-27.21V62.26c24.36-17.64,53.68-27.22,84.08-27.22,0,0,0,0,0,0,30.4,0,59.72,9.57,84.08,27.22v211.45c-24.36,17.64-53.68,27.21-84.08,27.21h0Z"/>
    </clipPath>
  </defs>
  <path class="st1" d="M0,48.48v239c69.28,63.09,171.25,66.29,244.04,0v-57.07s0-181.93,0-181.93C173.07-16.16,70.98-16.16,0,48.48"/>
  <path class="st9" d="M237.04,51.58C171.85-7.78,72.2-7.78,7.01,51.58v232.8c65.18,59.36,164.84,59.36,230.02,0V51.58"/>
  <path class="st2" d="M26.71,275.36c55.47,45.11,135.16,45.1,190.63,0V60.6c-55.47-45.11-135.16-45.11-190.63,0v214.76ZM18.85,279.05V56.91c61.56-51.31,146.22-50.11,206.33,0v222.14c-60.78,50.74-145.56,50.74-206.33,0"/>
  <path class="st8" d="M186.68,106.02c0,33.94-27.95,61.46-62.44,61.46s-62.44-27.51-62.44-61.46,27.95-61.46,62.44-61.46,62.44,27.51,62.44,61.46"/>
  <path class="st7" d="M140.12,123.58h6.59l-.33-9.35-6.26,9.35ZM165.17,123.45h6.56l-.32-9.31-6.24,9.31ZM172.26,134.7h7.21c-10.47,19.5-31.28,32.78-55.24,32.78-34.48,0-62.44-27.51-62.44-61.46s27.95-61.45,62.44-61.45,62.44,27.51,62.44,61.46c0,9.08-2,17.71-5.6,25.47l-1.8-25.9h-16.2l-1.91,6.65h2.52l-7.99,12.48-1.13-19.13h-16.43l-1.87,6.62,2.51.03-10.73,16.03-8.84-.04c-.93,0-4.5-.84-4.5-5.19s4.21-10.68,8.49-10.68l1.8.04-.94,3.3h7.87l2.82-10.11h-12.12c-7.54,0-13.62,5.3-15.55,10.77l3.15-10.77h-10.79l-1.9,6.65h2.79s-2.81,9.73-2.81,9.73l-7.08-16.38h-10.07l-1.89,6.65h2.77l-6.26,22.45h8.06s3.12-11.13,3.92-13.99c1.14,2.7,5.89,13.99,5.89,13.99h8.98l4.12-14.27c-.38,2.16-.38,4.38-.01,6.54.79,4.67,5.41,7.72,10.45,7.72h16.3l2.82-4.18h11.5l.23,4.18h10.16l2.63-4.18h11.77l.47,4.18M190.66,139.67c0,2.15-1.78,3.9-3.96,3.9s-3.96-1.75-3.96-3.9,1.74-3.9,3.96-3.9,3.96,1.71,3.96,3.9M186.7,134.72c-2.77,0-5.03,2.22-5.03,4.95s2.25,4.95,5.03,4.95,5.03-2.22,5.03-4.95-2.21-4.95-5.03-4.95"/>
  <path class="st7" d="M187.99,138.6c0,.48-.46.81-.89.81h-1.3v-1.66h1.3c.43,0,.89.32.89.85M189.12,138.6c0-1.12-1.05-1.81-2.02-1.81h-2.42v5.78h1.11v-2.18h.71l1.46,2.18h1.35l-1.52-2.24c.48-.12,1.35-.6,1.35-1.73"/>
  <g class="st10">
    <path class="st8" d="M113.39,461.48s13.63-25.27-2.37-77.74c-4.47-14.67-4.96-30.27-3.36-45.14-15.41,5.44-22.65,13-22.65,13l-2.69-1.67c.03.49.06,1.01.08,1.54.02.36.03.75.04,1.13,0,.15.01.29.02.45.02.49.03,1,.04,1.53,0,.05,0,.09,0,.14.08,3.64.08,8.06-.05,13.52-.37,16.48,3.2,23.97,6.51,27.39-1.62,2.75-3.03,6.06-4.03,10.06-5.16,20.54-18.11,15.76-18.11,15.76,4.72-8.34,9.74-24.75,2.27-51.33-6.65-23.68-3.86-32.54-3.86-32.54,17.81-18.81,39.31-27.84,43.95-29.64.61-6.28.89-12.49.98-19-6.13-5.45-13.12-10.7-19.68-12.99-19.77-6.91-13.31-17.25-13.31-17.25,0,0,4.09,3.15,8.26,3.34l.04-2.83c2.36,1.97,4.71,3.97,7.04,5.98,3.55,3.07,10.44,6.4,17.61,8.87-.08-4.07-.22-8.14-.41-12.21-20.71-8.97-27.49-17.58-27.49-17.58-.93-3.89-.9-10.97,3.45-25.08,2.06-6.68,2.15-12.05,1.68-15.87-5.46-3.1-8.92-9.18-8.33-15.84.8-9.11,8.84-15.85,17.95-15.04,9.11.8,15.85,8.84,15.04,17.95-.6,6.85-5.3,12.36-11.46,14.33-3.35,5.85-7.63,16.88-6.63,34.1,0,0,9.91,6.04,25.86,10.07,16.27,4.11,30.61,9.43,33.1,21.94,2.39,12.03-11.76,29.14-14.42,40.74-2.66,11.6,3.25,24.94-12.23,69.37,0,0,8.26,10.28,6.7,27.79-1.56,17.51,1.84,27.87,4.14,32.17,0,0-4.12,3.51-6.42,11.7-2.3,8.19-8.24,14.95-17.28,8.9"/>
  </g>
  <g class="st3">
    <path class="st8" d="M140.56,250.32c-3.31-.17-6.59-8.99-6.1-18.81.49-9.83,6.2-16.68,12.81-16.52,6.61.17,12.89,5.26,11.21,15.58-2.01,12.35-13.46,19.98-17.92,19.76"/>
  </g>
  <g class="st6">
    <path class="st1" d="M140.56,250.32c-1.32-.07-2.63-1.52-3.7-3.84,6.02-.93,18.05-8.46,20.46-19.93.38-1.82.45-3.46.28-4.96,1.05,2.35,1.47,5.33.87,8.97-2.01,12.35-13.46,19.98-17.92,19.76"/>
  </g>
  <g class="st4">
    <path class="st1" d="M105.83,175.97c1.95,2.91,2.97,6.48,2.64,10.25-.77,8.75-8.49,15.23-17.24,14.46-4.69-.41-8.71-2.83-11.33-6.33,1.32,3.79,3.99,6.99,7.47,8.98.47,3.82.38,9.19-1.68,15.87-.77,2.51-1.41,4.84-1.93,7.01,4.53-6.66,10.16-11.95,13.78-15,.99-2.63,2.05-4.78,3.03-6.49,6.16-1.97,10.85-7.48,11.45-14.33.51-5.75-2-11.07-6.2-14.41"/>
  </g>
  <g class="st5">
    <path class="st1" d="M152.58,278.47c-8.23,8.44-32.08,13.15-32.08,13.15-.61-.63-1.21-1.25-1.81-1.85-8.16-8.19-16.18-14.03-27.86-18.02-12.54-4.28-13.64-13.05-13.64-13.05,0,0-6.46,10.34,13.31,17.25.81.28,1.62.62,2.43.97h0c.91.41,1.83.87,2.75,1.37.63.34,1.26.72,1.9,1.09.19.12.39.23.58.35.85.53,1.69,1.07,2.51,1.64.7.48,1.39.97,2.08,1.48.72.53,1.43,1.08,2.13,1.63,0,0,0,0,0,0h0c1.81,1.43,3.59,2.92,5.3,4.44,3.3,2.85,7.97,7,9.38,8.24,7.52-.63,14.26-2.49,20.01-4.76-4.74,9.36-9.77,17.27-5.95,29.27,2.69,8.45,2.85,16.31,2.48,21.56h0c2.44-16.26.69-24.34,2.37-31.7,2.13-9.31,11.65-22.15,14.1-33.08"/>
  </g>
</svg>