<?xml version="1.0" encoding="UTF-8"?>
<svg id="Layer_1" xmlns="http://www.w3.org/2000/svg" version="1.1" viewBox="0 0 512 169">
  <!-- Generator: Adobe Illustrator 30.0.0, SVG Export Plug-In . SVG Version: 2.1.1 Build 123)  -->
  <defs>
    <style>
      .st0 {
        opacity: .97;
      }

      .st0, .st1, .st2, .st3 {
        fill: #f7f7f9;
        fill-rule: evenodd;
        isolation: isolate;
      }

      .st1 {
        opacity: .98;
      }

      .st2 {
        opacity: .97;
      }

      .st3 {
        opacity: .96;
      }
    </style>
  </defs>
  <path class="st1" d="M-.5-.5h130c-4.59,11.93-9.09,23.93-13.5,36-1,.67-2,1.33-3,2-19.67-.33-39.33-.67-59-1-.5,10.99-.67,21.99-.5,33h51c-4.37,12.41-9.04,24.75-14,37-12.32,1-24.65,1.33-37,1v61H-.5V-.5Z"/>
  <path class="st2" d="M143.5-.5h54v169h-54V-.5Z"/>
  <path class="st0" d="M232.5-.5h130c-3.93,12.12-8.26,24.12-13,36-20.66,1-41.32,1.33-62,1v33c17.15-.48,34.15.02,51,1.5-5.2,11.92-10.2,23.92-15,36-11.99.5-23.99.67-36,.5v61h-55V-.5Z"/>
  <path class="st3" d="M395.5-.5h57c19.1,55.29,38.76,110.29,59,165v4h-53c-2.12-7.33-4.12-14.33-6-21-19.65-1-39.32-1.33-59-1-1.69,7.44-3.69,14.77-6,22h-52c20-56.33,40-112.67,60-169ZM422.5,46.5c7.13,21.43,13.8,43.43,20,66-13,.17-26,0-39-.5,6.72-21.71,13.05-43.54,19-65.5Z"/>
</svg>