<?xml version="1.0" encoding="UTF-8"?>
<svg id="Layer_1" xmlns="http://www.w3.org/2000/svg" version="1.1" viewBox="0 0 465 300">
  <!-- Generator: Adobe Illustrator 30.0.0, SVG Export Plug-In . SVG Version: 2.1.1 Build 123)  -->
  <defs>
    <style>
      .st0 {
        fill: #a3fe00;
      }

      .st1 {
        fill: #964ce2;
      }
    </style>
  </defs>
  <path class="st0" d="M144.25,74.98c-1.41,0-2.97.16-4.64.51l-82.63,16.32c-6.21,1.25-12.37,7.88-13.11,14.21h0l-11.44,92.31,24.08-38.45c1.6-1.87,3.83-2.89,6.13-2.89l46.41-.82c6.6-.04,14.64-5.43,17.17-11.51l23.15-57.26c1.83-4.45,2.19-8.39.9-10.3-1.25-1.87-4.64-2.07-6.01-2.07v-.04ZM127.58,96.68h0v.12l-.08.12c-.39.9-1.13,1.52-1.8,2.15-.12.12-.23.2-.35.31h0v.04c-2.65,2.22-5.27,4.22-8.04,6.32-1.29.98-2.62,1.99-3.94,3.04-1.37,1.05-2.69,2.11-3.9,3.12l-.12.12c-1.56,1.41-3.32,2.97-3.51,4.61-.12,1.99,2.3,3.9,4.64,5.78,1.83,1.44,3.55,2.85,4.49,4.49h0v.12c.59,1.21.39,2.19.12,2.81-.74,1.72-2.73,2.34-4.33,2.85-.12.04-.23.08-.35.12h-.16c-9.91,2.5-23.26,5.66-35.05,8.47-6.56,1.56-12.72,3.01-17.92,4.25h0c-.31.08-.66.16-1.05.23-1.48.35-3.04.7-4.18.66h-.23c-1.09-.12-1.64-.9-1.8-1.52-.2-.86.16-1.64,1.05-2.38.31-.23.66-.47,1.05-.74h0c4.33-2.62,8.9-5.15,13.35-7.61,2.62-1.44,5.31-2.93,7.96-4.45h0c1.09-.62,2.26-1.29,3.32-1.95.9-.55,2.97-1.83,3.79-3.01h0c.39-.59.55-1.09-.08-2.07-.66-1.05-1.91-2.15-3.12-3.2-1.17-1.01-2.26-1.95-2.93-3.01-1.01-1.37-1.05-2.54-.98-3.28.12-.74.51-1.76,1.76-2.65.82-.59,1.91-1.17,3.55-1.8h0c8.16-2.81,17.88-5.93,27.32-8.98,4.84-1.56,9.41-3.04,13.43-4.37h0c.27-.08.55-.16.82-.23,1.52-.47,3.12-.98,4.41-1.17h0c.35-.04.66-.04.94,0,.9.12,1.37.62,1.56.94.31.51.43,1.13.23,1.72l.12.04Z"/>
  <path class="st0" d="M207.44,86.18c-2.77-4.1-7.46-7.3-11.59-10.11-1.13-.78-2.22-1.52-3.24-2.26-5.07-3.71-10.3-7.34-15.38-10.85-1.29-.9-2.58-1.8-3.9-2.69h-.04c-4.84-3.4-9.88-6.91-15.61-9.02-3.28-1.21-6.56-1.8-10.07-1.8-2.22,0-4.61.23-7.46.7-4.1.7-8.24,1.52-12.26,2.26-1.83.35-3.71.7-5.58,1.05l-47.62,8.98c-2.58.47-5.19.98-7.73,1.44-5.07.94-10.34,1.91-15.5,2.93h-.08c-8.16,1.64-16.04,6.25-22.17,12.88-6.17,6.67-10.11,14.87-11.09,23.15h0l-12.57,109.8c-.9,7.3.74,13.31,4.8,17.92.35.39,1.33,1.52,7.18,4.92,3.4,1.99,7.73,4.29,12.18,6.56,4.57,2.3,9.02,4.41,12.49,5.85,5.62,2.38,7.49,2.65,8.35,2.65,7.3,0,11.83-3.83,15.46-6.91h0l.08-.08h0l.47-.39h.04l.04-.12.78-.82h.04l.04-.12,34.97-41.92,40.16,1.72c1.64.12,3.24.16,4.8.16,9.72,0,18.19-2.22,25.1-6.64,6.99-4.45,12.53-11.09,16.39-19.79l22.05-49.88h0v-.04l.16-.43h0v-.04c2.54-6.95,3.79-13,3.79-18.58,0-6.28-1.68-11.83-4.92-16.51-.94-1.37-1.83-2.69-2.73-3.98h.16ZM176.88,108.39l-22.05,49.88c-6.25,14.09-17.1,20.96-33.1,20.96-1.37,0-2.81-.04-4.25-.16l-42.78-1.83h-.16c-.9,0-2.15.47-2.81,1.05l-36.93,44.3-.47.39c-3.12,2.65-5.58,4.72-9.52,4.72-2.69,0-5.27-1.17-7.06-3.2-2.3-2.58-3.12-6.09-2.58-10.73l12.57-109.76c1.6-13.15,13.04-25.49,26-28.14l91.77-17.33c1.33-.2,2.58-.27,3.79-.27,11.59,0,17.45,8.67,24.71,19.32.9,1.33,1.83,2.69,2.77,4.06,4.37,6.28,4.37,14.99.08,26.66l.04.08Z"/>
  <path class="st0" d="M237.73,143.01h13.54c6.95,0,12.33-1.48,16.12-4.49,3.79-2.97,6.32-7.73,7.61-14.21l1.33-6.91c1.29-6.48.62-11.24-2.03-14.21-2.65-2.97-7.46-4.49-14.44-4.49h-29.31l-12.06,62.18h15.77l3.47-17.88h0ZM243.9,111.2h10.89c4.64,0,6.56,2.26,5.66,6.71l-1.17,5.93c-.9,4.49-3.67,6.71-8.31,6.71h-10.89l3.83-19.4v.04Z"/>
  <path class="st0" d="M289.96,108.9c2.65,0,4.88-.7,6.64-2.07,1.76-1.41,2.85-3.12,3.28-5.19.35-2.11-.08-3.86-1.29-5.27s-3.16-2.07-5.82-2.07-4.8.7-6.6,2.07c-1.8,1.41-2.89,3.16-3.24,5.27-.43,2.07,0,3.79,1.25,5.19s3.16,2.07,5.74,2.07h.04Z"/>
  <polygon class="st0" points="287.3 160.89 296.44 113.58 281.64 113.58 272.51 160.89 287.3 160.89"/>
  <path class="st0" d="M294.41,144.42c-1.13,5.78-.43,10.11,2.07,12.96,2.5,2.85,7.1,4.29,13.78,4.29h3.83c4.8,0,9.8-.39,15.07-1.17l2.03-10.46h-17.02c-2.11,0-3.59-.47-4.33-1.41-.78-.94-.94-2.54-.55-4.8l2.58-13.27c.78-4.14,3.2-6.21,7.34-6.21h16.82l1.95-10.38c-4.68-.82-9.52-1.25-14.6-1.25h-3.63c-6.67,0-11.83,1.44-15.46,4.33s-6.01,7.22-7.14,13.04l-2.73,14.25v.08Z"/>
  <polygon class="st0" points="385.08 113.58 368.1 113.58 353.58 129.62 359.94 96.95 345.15 96.95 332.74 160.89 347.53 160.89 349.76 149.38 354.52 144.42 361.43 160.89 378.02 160.89 365.8 134.15 385.08 113.58"/>
  <path class="st1" d="M267.87,212.45h-29c-7.38,0-9.52-2.22-9.52-9.8v-28.57c0-1.09-.51-1.56-1.56-1.56h-7.73c-1.09,0-1.56.51-1.56,1.56v29.63c0,13.74,5.5,18.89,20.02,18.89h29.35c1.01,0,1.56-.51,1.56-1.56v-7.03c0-1.05-.59-1.56-1.56-1.56Z"/>
  <path class="st1" d="M302.8,183.33h-30.84c-.86,0-1.29.43-1.29,1.29v6.28c0,.86.43,1.29,1.29,1.29h29.86c6.17,0,7.88,1.64,7.88,6.25v.7h-29.2c-7.73,0-11.01,3.24-11.01,9.88v3.43c0,7.38,2.81,10.15,11.01,10.15h34.08c4.22,0,5.31-1.13,5.31-5.74v-19.13c0-10.54-4.37-14.44-17.02-14.44l-.08.04ZM309.67,211.75c0,1.72-.66,2.38-2.22,2.38h-23.97c-3.08,0-3.94-.66-3.94-3.08v-1.52c0-2.15.86-3.01,3.94-3.01h26.19v5.23Z"/>
  <path class="st1" d="M359.71,183.33h-26.85v-12.8c0-1.09-.51-1.56-1.56-1.56h-7.03c-1.09,0-1.56.51-1.56,1.56v37.67c0,10.66,4.45,14.44,16.98,14.44h20.02c12.53,0,17.02-3.79,17.02-14.44v-10.38c0-10.66-4.53-14.44-17.02-14.44v-.04ZM366.58,206.17c0,6.09-1.64,7.57-7.88,7.57h-18.03c-6.17,0-7.81-1.52-7.81-7.57v-13.97h25.84c6.25,0,7.88,1.56,7.88,7.57v6.4Z"/>
  <path class="st1" d="M417.67,198.63h-24.04c-2.93,0-4.02-.7-4.02-2.73v-1.05c0-2.07,1.01-2.81,4.02-2.81h32.28c.86,0,1.29-.43,1.29-1.29v-6.17c0-.86-.43-1.29-1.29-1.29h-35.01c-7.88,0-11.24,3.51-11.24,9.8v3.16c0,6.67,3.59,10.03,11.16,10.03h24.12c2.81,0,3.94.78,3.94,2.65v1.95c0,2.38-.94,3.01-3.94,3.01h-34c-.86,0-1.29.43-1.29,1.29v6.17c0,.86.43,1.29,1.29,1.29h36.65c8,0,11.24-3.43,11.24-10.03v-4.02c0-6.6-3.59-9.95-11.16-9.95h0Z"/>
  <path class="st1" d="M451.75,183.53h-8.7c-5.74,0-7.92,2.07-7.92,7.46v4.88c0,5.39,2.19,7.46,7.92,7.46h8.7c5.74,0,7.92-2.03,7.92-7.46v-4.88c0-5.43-2.19-7.46-7.92-7.46ZM457.53,195.86c0,3.94-1.56,5.35-5.82,5.35h-8.7c-4.22,0-5.78-1.44-5.78-5.35v-4.8c0-3.9,1.56-5.35,5.78-5.35h8.7c4.25,0,5.82,1.41,5.82,5.35v4.8Z"/>
  <path class="st1" d="M450.89,194.85c1.56-.27,2.22-1.21,2.22-2.89v-.82c0-1.99-.9-3.01-3.12-3.01h-7.77c-.31,0-.47.16-.47.43v9.48c0,.2.12.31.31.31h1.48c.2,0,.27-.12.27-.31v-2.97h4.92l2.26,2.97c.16.27.27.31.62.31h1.56c.31,0,.31-.27.2-.43l-2.5-3.08h0ZM449.53,193.44h-5.7v-3.24s.08-.16.2-.16h5.54c1.05,0,1.44.47,1.44,1.41v.62c0,.98-.39,1.41-1.48,1.41v-.04Z"/>
  <path class="st1" d="M125.75,94.03h-.94c-1.29.2-2.85.66-4.41,1.17-.27.08-.55.16-.82.23h0c-4.06,1.33-8.63,2.81-13.43,4.37-9.41,3.04-19.17,6.17-27.32,8.98h0c-1.64.62-2.77,1.17-3.55,1.8-1.25.9-1.64,1.95-1.76,2.65-.12.74-.04,1.91.98,3.28.7,1.01,1.8,1.99,2.93,3.01,1.21,1.05,2.46,2.15,3.12,3.2.59.98.47,1.48.08,2.07h0c-.82,1.17-2.89,2.46-3.79,3.01-1.05.66-2.22,1.33-3.32,1.95h0c-2.65,1.52-5.35,3.01-7.96,4.45-4.45,2.46-9.02,5-13.35,7.61h0c-.39.27-.74.51-1.05.74-.9.7-1.25,1.52-1.05,2.38.16.66.7,1.41,1.8,1.52h.23c1.13,0,2.69-.35,4.18-.66.35-.08.7-.16,1.05-.23h0c5.15-1.25,11.36-2.73,17.92-4.25,11.79-2.77,25.1-5.97,35.05-8.47h.16c.12,0,.23-.08.35-.12,1.6-.51,3.63-1.17,4.33-2.85.27-.62.47-1.6-.12-2.81h0v-.12c-.94-1.68-2.65-3.04-4.49-4.49-2.34-1.87-4.72-3.79-4.64-5.78.2-1.64,1.95-3.24,3.51-4.61l.12-.12c1.21-1.01,2.54-2.07,3.9-3.12,1.37-1.05,2.69-2.07,3.94-3.04,2.77-2.11,5.43-4.14,8.04-6.32h0v-.04c.12-.12.23-.23.35-.31.7-.62,1.41-1.25,1.8-2.15v-.12l.08-.12h0c.16-.59.08-1.21-.23-1.72-.2-.31-.66-.82-1.56-.94l-.12-.04Z"/>
</svg>