<?xml version="1.0" encoding="UTF-8"?>
<svg id="Layer_1" xmlns="http://www.w3.org/2000/svg" version="1.1" viewBox="0 0 65.07 28.91">
  <!-- Generator: Adobe Illustrator 30.0.0, SVG Export Plug-In . SVG Version: 2.1.1 Build 123)  -->
  <defs>
    <style>
      .st0 {
        fill: #a3fe00;
      }

      .st1 {
        fill: #9b4ff6;
      }
    </style>
  </defs>
  <g>
    <path class="st0" d="M-19.34-28.43c-.18,0-.39.02-.61.07l-10.77,2.13c-.81.16-1.61,1.03-1.71,1.85h0l-1.49,12.03,3.14-5.01c.21-.24.5-.38.8-.38l6.05-.11c.86,0,1.91-.71,2.24-1.5l3.02-7.46c.24-.58.28-1.09.12-1.34-.16-.24-.61-.27-.78-.27h0ZM-21.51-25.6h0v.03c-.06.12-.16.2-.24.28-.02.02-.03.03-.05.04h0c-.35.3-.69.55-1.05.83-.17.13-.34.26-.51.4-.18.14-.35.27-.51.41l-.02.02c-.2.18-.43.39-.46.6-.02.26.3.51.61.75.24.19.46.37.59.58h0v.02c.08.16.05.28.02.37-.1.22-.36.31-.56.37-.02,0-.03.01-.05.02h-.02c-1.29.33-3.03.74-4.57,1.1-.85.2-1.66.39-2.33.55h0s-.09.02-.14.03c-.19.05-.4.09-.54.09h-.03c-.14-.02-.21-.12-.23-.2-.03-.11.02-.21.14-.31.04-.03.09-.06.14-.1h0c.56-.34,1.16-.67,1.74-.99.34-.19.69-.38,1.04-.58h0c.14-.08.3-.17.43-.25.12-.07.39-.24.49-.39h0c.05-.08.07-.14-.01-.27-.09-.14-.25-.28-.41-.42-.15-.13-.3-.25-.38-.39-.13-.18-.14-.33-.13-.43.02-.1.07-.23.23-.35.11-.08.25-.15.46-.23h0c1.06-.37,2.33-.77,3.56-1.17.63-.2,1.23-.4,1.75-.57h0s.07-.02.11-.03c.2-.06.41-.13.57-.15h0s.09,0,.12,0c.12.02.18.08.2.12.04.07.06.15.03.22h.02Z"/>
    <path class="st0" d="M-11.1-26.97c-.36-.53-.97-.95-1.51-1.32-.15-.1-.29-.2-.42-.3-.66-.48-1.34-.96-2-1.41-.17-.12-.34-.23-.51-.35h0c-.63-.44-1.29-.9-2.03-1.18-.43-.16-.85-.23-1.31-.23-.29,0-.6.03-.97.09-.53.09-1.07.2-1.6.3-.24.05-.48.09-.73.14l-6.21,1.17c-.34.06-.68.13-1.01.19-.66.12-1.35.25-2.02.38h-.01c-1.06.21-2.09.81-2.89,1.68-.8.87-1.32,1.94-1.44,3.02h0l-1.64,14.31c-.12.95.1,1.73.63,2.33.05.05.17.2.94.64.44.26,1.01.56,1.59.85.6.3,1.18.57,1.63.76.73.31.98.35,1.09.35.95,0,1.54-.5,2.01-.9h.01s.06-.06.06-.06h0v-.02s.11-.11.11-.11h0v-.02s4.56-5.46,4.56-5.46l5.23.22c.21.02.42.02.63.02,1.27,0,2.37-.29,3.27-.86.91-.58,1.63-1.44,2.14-2.58l2.87-6.5h0s.02-.06.02-.06h0c.33-.91.49-1.7.49-2.43,0-.82-.22-1.54-.64-2.15-.12-.18-.24-.35-.36-.52h.02ZM-15.08-24.08l-2.87,6.5c-.81,1.84-2.23,2.73-4.31,2.73-.18,0-.37,0-.55-.02l-5.58-.24h-.02c-.12,0-.28.06-.37.14l-4.81,5.77-.06.05c-.41.35-.73.62-1.24.62-.35,0-.69-.15-.92-.42-.3-.34-.41-.79-.34-1.4l1.64-14.3c.21-1.71,1.7-3.32,3.39-3.67l11.96-2.26c.17-.03.34-.04.49-.04,1.51,0,2.27,1.13,3.22,2.52.12.17.24.35.36.53.57.82.57,1.95.01,3.47h0Z"/>
    <path class="st1" d="M-21.75-25.95h-.12c-.17.03-.37.09-.57.15-.04.01-.07.02-.11.03h0c-.53.17-1.12.37-1.75.57-1.23.4-2.5.8-3.56,1.17h0c-.21.08-.36.15-.46.23-.16.12-.21.25-.23.35-.02.1,0,.25.13.43.09.13.23.26.38.39.16.14.32.28.41.42.08.13.06.19.01.27h0c-.11.15-.38.32-.49.39-.14.09-.29.17-.43.25h0c-.35.2-.7.39-1.04.58-.58.32-1.18.65-1.74.99h0c-.05.04-.1.07-.14.1-.12.09-.16.2-.14.31.02.09.09.18.23.2h.03c.15,0,.35-.05.54-.09.05-.01.09-.02.14-.03h0c.67-.16,1.48-.36,2.33-.55,1.54-.36,3.27-.78,4.57-1.1h.02s.03-.01.05-.02c.21-.07.47-.15.56-.37.04-.08.06-.21-.02-.37h0v-.02c-.12-.22-.35-.4-.59-.58-.31-.24-.62-.49-.61-.75.03-.21.25-.42.46-.6l.02-.02c.16-.13.33-.27.51-.41.18-.14.35-.27.51-.4.36-.27.71-.54,1.05-.82h0s.03-.04.05-.05c.09-.08.18-.16.23-.28v-.03h.01c.02-.08.01-.16-.03-.22-.03-.04-.09-.11-.2-.12h-.02Z"/>
  </g>
  <g>
    <path class="st0" d="M20.28,4.04c-.2,0-.41.02-.64.07l-11.47,2.27c-.86.17-1.72,1.09-1.82,1.97h0l-1.59,12.82,3.34-5.34c.22-.26.53-.4.85-.4l6.44-.11c.92,0,2.03-.75,2.38-1.6l3.21-7.95c.25-.62.3-1.17.12-1.43-.17-.26-.64-.29-.83-.29h0ZM17.97,7.05h0v.03c-.07.12-.17.21-.26.3-.02.02-.03.03-.05.04h0c-.37.31-.73.59-1.12.88-.18.14-.36.28-.55.42-.19.15-.37.29-.54.43l-.02.02c-.22.2-.46.41-.49.64-.02.28.32.54.64.8.25.2.49.4.62.62h0v.02c.08.17.05.3.02.39-.1.24-.38.33-.6.4-.02,0-.03.01-.05.02h-.02c-1.38.35-3.23.79-4.87,1.18-.91.22-1.77.42-2.49.59h0s-.09.02-.15.03c-.21.05-.42.1-.58.09h-.03c-.15-.02-.23-.12-.25-.21-.03-.12.02-.23.15-.33.04-.03.09-.07.15-.1h0c.6-.36,1.24-.72,1.85-1.06.36-.2.74-.41,1.11-.62h0c.15-.09.31-.18.46-.27.12-.08.41-.25.53-.42h0c.05-.08.08-.15-.01-.29-.09-.15-.27-.3-.43-.44-.16-.14-.31-.27-.41-.42-.14-.19-.15-.35-.14-.46.02-.1.07-.24.24-.37.11-.08.27-.16.49-.25h0c1.13-.39,2.48-.82,3.79-1.25.67-.22,1.31-.42,1.86-.61h0s.08-.02.11-.03c.21-.07.43-.14.61-.16h0s.09,0,.13,0c.12.02.19.09.22.13.04.07.06.16.03.24h.02Z"/>
    <path class="st0" d="M29.06,5.59c-.38-.57-1.04-1.01-1.61-1.4-.16-.11-.31-.21-.45-.31-.7-.51-1.43-1.02-2.14-1.51-.18-.12-.36-.25-.54-.37h0c-.67-.47-1.37-.96-2.17-1.25-.46-.17-.91-.25-1.4-.25-.31,0-.64.03-1.04.1-.57.1-1.14.21-1.7.31-.25.05-.51.1-.78.15l-6.61,1.25c-.36.07-.72.14-1.07.2-.7.13-1.44.27-2.15.41h-.01c-1.13.23-2.23.87-3.08,1.79-.86.93-1.4,2.07-1.54,3.21h0l-1.75,15.25c-.12,1.01.1,1.85.67,2.49.05.05.18.21,1,.68.47.28,1.07.6,1.69.91.63.32,1.25.61,1.73.81.78.33,1.04.37,1.16.37,1.01,0,1.64-.53,2.15-.96h.01s.07-.07.07-.07h0v-.02s.11-.11.11-.11h0v-.02s4.86-5.82,4.86-5.82l5.58.24c.23.02.45.02.67.02,1.35,0,2.53-.31,3.49-.92.97-.62,1.74-1.54,2.28-2.75l3.06-6.93h0s.02-.07.02-.07h0c.35-.97.53-1.81.53-2.59,0-.87-.23-1.64-.68-2.29-.13-.19-.25-.37-.38-.55h.02ZM24.81,8.68l-3.06,6.93c-.87,1.96-2.37,2.91-4.6,2.91-.19,0-.39,0-.59-.02l-5.94-.25h-.02c-.12,0-.3.07-.39.15l-5.13,6.15-.07.05c-.43.37-.78.66-1.32.66-.37,0-.73-.16-.98-.44-.32-.36-.43-.85-.36-1.49l1.75-15.24c.22-1.83,1.81-3.54,3.61-3.91l12.74-2.41c.18-.03.36-.04.53-.04,1.61,0,2.42,1.2,3.43,2.68.12.18.25.37.38.56.61.87.61,2.08.01,3.7h0Z"/>
    <path class="st0" d="M33.26,13.48h1.88c.96,0,1.71-.21,2.24-.62.53-.41.88-1.07,1.06-1.97l.18-.96c.18-.9.09-1.56-.28-1.97s-1.04-.62-2.01-.62h-4.07l-1.67,8.63h2.19l.48-2.48h0ZM34.12,9.07h1.51c.64,0,.91.31.79.93l-.16.82c-.12.62-.51.93-1.15.93h-1.51l.53-2.69h0Z"/>
    <path class="st0" d="M40.51,8.75c.37,0,.68-.1.92-.29.24-.2.4-.43.46-.72.05-.29-.01-.54-.18-.73s-.44-.29-.81-.29-.67.1-.92.29c-.25.2-.4.44-.45.73-.06.29,0,.53.17.72s.44.29.8.29h0Z"/>
    <polygon class="st0" points="40.15 15.97 41.41 9.4 39.36 9.4 38.09 15.97 40.15 15.97"/>
    <path class="st0" d="M41.13,13.68c-.16.8-.06,1.4.29,1.8.35.4.99.6,1.91.6h.53c.67,0,1.36-.05,2.09-.16l.28-1.45h-2.36c-.29,0-.5-.07-.6-.2-.11-.13-.13-.35-.08-.67l.36-1.84c.11-.57.44-.86,1.02-.86h2.34l.27-1.44c-.65-.11-1.32-.17-2.03-.17h-.5c-.93,0-1.64.2-2.15.6s-.83,1-.99,1.81l-.38,1.98h0Z"/>
    <polygon class="st0" points="53.72 9.4 51.36 9.4 49.35 11.63 50.23 7.09 48.18 7.09 46.45 15.97 48.51 15.97 48.82 14.37 49.48 13.68 50.44 15.97 52.74 15.97 51.05 12.25 53.72 9.4"/>
    <path class="st1" d="M37.45,23.13h-4.03c-1.02,0-1.32-.31-1.32-1.36v-3.97c0-.15-.07-.22-.22-.22h-1.07c-.15,0-.22.07-.22.22v4.11c0,1.91.76,2.62,2.78,2.62h4.08c.14,0,.22-.07.22-.22v-.98c0-.15-.08-.22-.22-.22Z"/>
    <path class="st1" d="M42.3,19.08h-4.28c-.12,0-.18.06-.18.18v.87c0,.12.06.18.18.18h4.15c.86,0,1.09.23,1.09.87v.1h-4.05c-1.07,0-1.53.45-1.53,1.37v.48c0,1.02.39,1.41,1.53,1.41h4.73c.59,0,.74-.16.74-.8v-2.66c0-1.46-.61-2.01-2.36-2.01h-.01ZM43.25,23.03c0,.24-.09.33-.31.33h-3.33c-.43,0-.55-.09-.55-.43v-.21c0-.3.12-.42.55-.42h3.64v.73Z"/>
    <path class="st1" d="M50.2,19.08h-3.73v-1.78c0-.15-.07-.22-.22-.22h-.98c-.15,0-.22.07-.22.22v5.23c0,1.48.62,2.01,2.36,2.01h2.78c1.74,0,2.36-.53,2.36-2.01v-1.44c0-1.48-.63-2.01-2.36-2.01h0ZM51.15,22.25c0,.85-.23,1.05-1.09,1.05h-2.5c-.86,0-1.08-.21-1.08-1.05v-1.94h3.59c.87,0,1.09.22,1.09,1.05v.88h0Z"/>
    <path class="st1" d="M58.25,21.21h-3.34c-.41,0-.56-.1-.56-.38v-.15c0-.29.14-.39.56-.39h4.48c.12,0,.18-.06.18-.18v-.86c0-.12-.06-.18-.18-.18h-4.86c-1.09,0-1.56.49-1.56,1.36v.44c0,.93.5,1.39,1.55,1.39h3.35c.39,0,.55.11.55.37v.27c0,.33-.13.42-.55.42h-4.72c-.12,0-.18.06-.18.18v.86c0,.12.06.18.18.18h5.09c1.11,0,1.56-.48,1.56-1.39v-.56c0-.92-.5-1.38-1.55-1.38h0Z"/>
    <path class="st1" d="M62.98,19.11h-1.21c-.8,0-1.1.29-1.1,1.04v.68c0,.75.3,1.04,1.1,1.04h1.21c.8,0,1.1-.28,1.1-1.04v-.68c0-.75-.3-1.04-1.1-1.04ZM63.78,20.82c0,.55-.22.74-.81.74h-1.21c-.59,0-.8-.2-.8-.74v-.67c0-.54.22-.74.8-.74h1.21c.59,0,.81.2.81.74v.67Z"/>
    <path class="st1" d="M62.86,20.68c.22-.04.31-.17.31-.4v-.11c0-.28-.12-.42-.43-.42h-1.08s-.07.02-.07.06v1.32s.02.04.04.04h.21s.04-.02.04-.04v-.41h.68l.31.41s.04.04.09.04h.22s.04-.04.03-.06l-.35-.43h0ZM62.67,20.49h-.79v-.45s.01-.02.03-.02h.77c.15,0,.2.07.2.2v.09c0,.14-.05.2-.21.2h0Z"/>
    <path class="st1" d="M17.71,6.68h-.13c-.18.03-.4.09-.61.16-.04.01-.08.02-.11.03h0c-.56.18-1.2.39-1.86.61-1.31.42-2.66.86-3.79,1.25h0c-.23.09-.38.16-.49.25-.17.12-.23.27-.24.37-.02.1,0,.27.14.46.1.14.25.28.41.42.17.15.34.3.43.44.08.14.07.21.01.29h0c-.11.16-.4.34-.53.42-.15.09-.31.18-.46.27h0c-.37.21-.74.42-1.11.62-.62.34-1.25.69-1.85,1.06h0c-.05.04-.1.07-.15.1-.12.1-.17.21-.15.33.02.09.1.2.25.21h.03c.16,0,.37-.05.58-.09.05-.01.1-.02.15-.03h0c.72-.17,1.58-.38,2.49-.59,1.64-.38,3.49-.83,4.87-1.18h.02s.03-.01.05-.02c.22-.07.5-.16.6-.4.04-.09.07-.22-.02-.39h0v-.02c-.13-.23-.37-.42-.62-.62-.33-.26-.66-.53-.64-.8.03-.23.27-.45.49-.64l.02-.02c.17-.14.35-.29.54-.43.19-.15.37-.29.55-.42.38-.29.75-.57,1.12-.88h0s.03-.04.05-.05c.1-.09.2-.17.25-.3v-.03h.01c.02-.08.01-.17-.03-.24-.03-.04-.09-.11-.22-.13h-.02Z"/>
  </g>
</svg>